<svg width="1544" height="215" viewBox="0 0 1544 215" fill="none" xmlns="http://www.w3.org/2000/svg">
<g filter="url(#filter0_d_373_6)">
<path d="M13.024 91.568H23.872V44.816L24.736 39.152L21.472 43.76L13.408 50.288L9.76 45.968L27.232 29.648H30.784V91.568H41.248V98H13.024V91.568ZM52.7868 82.448C52.7868 78.16 53.6508 74.512 55.3788 71.504C57.1708 68.496 59.7948 65.776 63.2508 63.344C61.9708 62.384 60.7548 61.392 59.6028 60.368C58.5148 59.28 57.5548 58.064 56.7228 56.72C55.8908 55.376 55.2188 53.872 54.7068 52.208C54.2588 50.544 54.0348 48.624 54.0348 46.448C54.0348 41.264 55.3788 37.168 58.0668 34.16C60.8188 31.152 64.5628 29.648 69.2988 29.648C73.7148 29.648 77.2028 31.024 79.7628 33.776C82.3868 36.464 83.6988 40.176 83.6988 44.912C83.6988 48.56 82.9948 51.792 81.5868 54.608C80.1788 57.424 77.9708 60.176 74.9628 62.864C76.3068 63.824 77.5868 64.88 78.8028 66.032C80.0188 67.184 81.0748 68.496 81.9708 69.968C82.9308 71.376 83.6668 73.008 84.1788 74.864C84.6908 76.656 84.9468 78.736 84.9468 81.104C84.9468 86.544 83.4748 90.928 80.5308 94.256C77.6508 97.52 73.6188 99.152 68.4348 99.152C65.9388 99.152 63.7308 98.736 61.8108 97.904C59.8908 97.072 58.2588 95.92 56.9148 94.448C55.5708 92.976 54.5468 91.216 53.8428 89.168C53.1388 87.12 52.7868 84.88 52.7868 82.448ZM67.7628 66.032C64.8188 68.208 62.6748 70.64 61.3307 73.328C60.0508 76.016 59.4108 78.704 59.4108 81.392C59.4108 84.656 60.2108 87.408 61.8108 89.648C63.4108 91.824 65.7468 92.912 68.8188 92.912C71.3148 92.912 73.4588 92.016 75.2508 90.224C77.1068 88.368 78.0348 85.456 78.0348 81.488C78.0348 79.504 77.7468 77.744 77.1708 76.208C76.5948 74.672 75.8268 73.328 74.8668 72.176C73.9068 70.96 72.8188 69.872 71.6028 68.912C70.3868 67.888 69.1068 66.928 67.7628 66.032ZM70.3548 60.368C72.5308 58.192 74.1948 56.016 75.3468 53.84C76.4988 51.6 77.0748 49.136 77.0748 46.448C77.0748 42.928 76.2748 40.304 74.6748 38.576C73.1388 36.784 71.3148 35.888 69.2028 35.888C67.8588 35.888 66.6428 36.176 65.5548 36.752C64.5308 37.264 63.6668 38 62.9628 38.96C62.2588 39.92 61.7148 41.04 61.3307 42.32C60.9468 43.536 60.7548 44.848 60.7548 46.256C60.7548 47.984 61.0108 49.552 61.5228 50.96C62.0348 52.304 62.7388 53.552 63.6348 54.704C64.5308 55.792 65.5548 56.816 66.7068 57.776C67.8588 58.672 69.0748 59.536 70.3548 60.368ZM95.4295 32.624C96.7735 31.92 98.5015 31.312 100.614 30.8C102.79 30.288 105.222 30.032 107.91 30.032C111.302 30.032 113.606 30.864 114.822 32.528C116.038 34.192 116.678 36.592 116.742 39.728C116.678 44.144 116.55 48.176 116.358 51.824C116.166 55.472 116.422 58.704 117.126 61.52H112.326L111.174 57.488H110.886C110.246 58.576 109.286 59.6 108.006 60.56C106.79 61.456 105.126 61.904 103.014 61.904C100.134 61.904 97.8935 61.104 96.2935 59.504C94.6935 57.84 93.8935 55.6 93.8935 52.784C93.8935 50.672 94.3415 48.912 95.2375 47.504C96.1335 46.096 97.3495 44.976 98.8855 44.144C100.422 43.312 102.182 42.768 104.166 42.512C106.214 42.192 108.422 42.096 110.79 42.224C110.918 39.664 110.694 37.84 110.118 36.752C109.606 35.664 108.326 35.12 106.278 35.12C104.422 35.12 102.662 35.344 100.998 35.792C99.3975 36.176 98.0535 36.624 96.9655 37.136L95.4295 32.624ZM104.166 56.72C106.086 56.72 107.526 56.272 108.486 55.376C109.51 54.416 110.278 53.456 110.79 52.496V47.024C109.446 46.96 108.134 46.96 106.854 47.024C105.574 47.024 104.422 47.184 103.398 47.504C102.374 47.824 101.542 48.368 100.902 49.136C100.262 49.84 99.9415 50.864 99.9415 52.208C99.9415 53.488 100.294 54.576 100.998 55.472C101.702 56.304 102.758 56.72 104.166 56.72ZM146.82 89.072C148.036 89.904 149.732 90.704 151.908 91.472C154.148 92.176 156.676 92.528 159.492 92.528C163.076 92.528 165.988 91.664 168.228 89.936C170.468 88.144 171.588 85.36 171.588 81.584C171.588 79.088 170.948 76.912 169.668 75.056C168.388 73.2 166.788 71.504 164.868 69.968C162.948 68.368 160.868 66.832 158.628 65.36C156.452 63.824 154.404 62.16 152.484 60.368C150.564 58.512 148.964 56.4 147.684 54.032C146.404 51.664 145.764 48.816 145.764 45.488C145.764 40.112 147.364 36.144 150.564 33.584C153.828 30.96 158.052 29.648 163.236 29.648C166.436 29.648 169.284 29.936 171.78 30.512C174.276 31.088 176.292 31.824 177.828 32.72L175.524 39.056C174.372 38.352 172.708 37.712 170.532 37.136C168.42 36.56 165.956 36.272 163.14 36.272C159.684 36.272 157.124 37.136 155.46 38.864C153.796 40.528 152.964 42.64 152.964 45.2C152.964 47.44 153.604 49.424 154.884 51.152C156.164 52.88 157.764 54.512 159.684 56.048C161.604 57.584 163.652 59.152 165.828 60.752C168.068 62.288 170.148 64.016 172.068 65.936C173.988 67.856 175.588 70.032 176.868 72.464C178.148 74.896 178.788 77.776 178.788 81.104C178.788 86.736 177.124 91.152 173.796 94.352C170.468 97.552 165.764 99.152 159.684 99.152C155.844 99.152 152.676 98.8 150.18 98.096C147.748 97.392 145.796 96.592 144.324 95.696L146.82 89.072ZM216.587 94.736C215.051 96.144 213.099 97.232 210.731 98C208.363 98.768 205.867 99.152 203.243 99.152C200.235 99.152 197.611 98.576 195.371 97.424C193.195 96.208 191.371 94.512 189.899 92.336C188.491 90.096 187.435 87.44 186.731 84.368C186.091 81.296 185.771 77.84 185.771 74C185.771 65.808 187.275 59.568 190.283 55.28C193.291 50.992 197.547 48.848 203.051 48.848C204.843 48.848 206.603 49.072 208.331 49.52C210.123 49.968 211.723 50.864 213.131 52.208C214.539 53.552 215.659 55.44 216.491 57.872C217.387 60.304 217.835 63.472 217.835 67.376C217.835 68.464 217.771 69.648 217.643 70.928C217.579 72.144 217.483 73.424 217.355 74.768H192.971C192.971 77.52 193.195 80.016 193.643 82.256C194.091 84.496 194.795 86.416 195.755 88.016C196.715 89.552 197.931 90.768 199.403 91.664C200.939 92.496 202.827 92.912 205.067 92.912C206.795 92.912 208.491 92.592 210.155 91.952C211.883 91.312 213.195 90.544 214.091 89.648L216.587 94.736ZM211.211 69.008C211.339 64.208 210.667 60.688 209.195 58.448C207.723 56.208 205.707 55.088 203.147 55.088C200.203 55.088 197.867 56.208 196.139 58.448C194.411 60.688 193.387 64.208 193.067 69.008H211.211ZM250.003 98V69.488C250.003 66.928 249.907 64.752 249.715 62.96C249.587 61.104 249.267 59.6 248.755 58.448C248.243 57.296 247.539 56.464 246.643 55.952C245.747 55.376 244.563 55.088 243.091 55.088C240.915 55.088 239.059 55.952 237.523 57.68C236.051 59.344 235.027 61.264 234.451 63.44V98H227.539V50H232.435L233.683 55.088H233.971C235.315 53.232 236.915 51.728 238.771 50.576C240.627 49.424 242.995 48.848 245.875 48.848C248.307 48.848 250.291 49.392 251.827 50.48C253.427 51.504 254.675 53.36 255.571 56.048C256.723 53.808 258.355 52.048 260.467 50.768C262.643 49.488 265.011 48.848 267.571 48.848C269.683 48.848 271.475 49.136 272.947 49.712C274.483 50.224 275.699 51.184 276.595 52.592C277.555 53.936 278.259 55.76 278.707 58.064C279.155 60.304 279.379 63.152 279.379 66.608V98H272.467V67.472C272.467 63.312 272.051 60.208 271.219 58.16C270.451 56.112 268.627 55.088 265.747 55.088C263.315 55.088 261.363 55.856 259.891 57.392C258.483 58.864 257.491 60.88 256.915 63.44V98H250.003ZM289.59 52.88C291.446 51.728 293.686 50.832 296.31 50.192C298.998 49.552 301.814 49.232 304.758 49.232C307.446 49.232 309.59 49.648 311.19 50.48C312.854 51.248 314.134 52.336 315.03 53.744C315.99 55.088 316.598 56.656 316.854 58.448C317.174 60.176 317.334 62 317.334 63.92C317.334 67.76 317.238 71.504 317.046 75.152C316.918 78.8 316.854 82.256 316.854 85.52C316.854 87.952 316.918 90.224 317.046 92.336C317.238 94.384 317.558 96.336 318.006 98.192H312.726L311.094 92.528H310.71C309.75 94.192 308.342 95.632 306.486 96.848C304.63 98.064 302.134 98.672 298.998 98.672C295.542 98.672 292.694 97.488 290.454 95.12C288.278 92.688 287.19 89.36 287.19 85.136C287.19 82.384 287.638 80.08 288.534 78.224C289.494 76.368 290.806 74.864 292.47 73.712C294.198 72.56 296.214 71.76 298.518 71.312C300.886 70.8 303.51 70.544 306.39 70.544C307.03 70.544 307.67 70.544 308.31 70.544C308.95 70.544 309.622 70.576 310.326 70.64C310.518 68.656 310.614 66.896 310.614 65.36C310.614 61.712 310.07 59.152 308.982 57.68C307.894 56.208 305.91 55.472 303.03 55.472C301.238 55.472 299.286 55.76 297.174 56.336C295.062 56.848 293.302 57.52 291.894 58.352L289.59 52.88ZM310.422 76.112C309.782 76.048 309.142 76.016 308.502 76.016C307.862 75.952 307.222 75.92 306.582 75.92C305.046 75.92 303.542 76.048 302.07 76.304C300.598 76.56 299.286 77.008 298.134 77.648C296.982 78.288 296.054 79.152 295.35 80.24C294.71 81.328 294.39 82.704 294.39 84.368C294.39 86.928 294.998 88.912 296.214 90.32C297.494 91.728 299.126 92.432 301.11 92.432C303.798 92.432 305.878 91.792 307.35 90.512C308.822 89.232 309.846 87.824 310.422 86.288V76.112ZM353.084 98V68.72C353.084 63.92 352.508 60.464 351.356 58.352C350.268 56.176 348.284 55.088 345.404 55.088C342.844 55.088 340.732 55.856 339.068 57.392C337.404 58.928 336.188 60.816 335.42 63.056V98H328.508V50H333.5L334.748 55.088H335.036C336.252 53.36 337.884 51.888 339.932 50.672C342.044 49.456 344.54 48.848 347.42 48.848C349.468 48.848 351.26 49.136 352.796 49.712C354.396 50.288 355.708 51.28 356.732 52.688C357.82 54.032 358.62 55.856 359.132 58.16C359.708 60.464 359.996 63.376 359.996 66.896V98H353.084ZM370.215 52.88C372.071 51.728 374.311 50.832 376.935 50.192C379.623 49.552 382.439 49.232 385.383 49.232C388.071 49.232 390.215 49.648 391.815 50.48C393.479 51.248 394.759 52.336 395.655 53.744C396.615 55.088 397.223 56.656 397.479 58.448C397.799 60.176 397.959 62 397.959 63.92C397.959 67.76 397.863 71.504 397.671 75.152C397.543 78.8 397.479 82.256 397.479 85.52C397.479 87.952 397.543 90.224 397.671 92.336C397.863 94.384 398.183 96.336 398.631 98.192H393.351L391.719 92.528H391.335C390.375 94.192 388.967 95.632 387.111 96.848C385.255 98.064 382.759 98.672 379.623 98.672C376.167 98.672 373.319 97.488 371.079 95.12C368.903 92.688 367.815 89.36 367.815 85.136C367.815 82.384 368.263 80.08 369.159 78.224C370.119 76.368 371.431 74.864 373.095 73.712C374.823 72.56 376.839 71.76 379.143 71.312C381.511 70.8 384.135 70.544 387.015 70.544C387.655 70.544 388.295 70.544 388.935 70.544C389.575 70.544 390.247 70.576 390.951 70.64C391.143 68.656 391.239 66.896 391.239 65.36C391.239 61.712 390.695 59.152 389.607 57.68C388.519 56.208 386.535 55.472 383.655 55.472C381.863 55.472 379.911 55.76 377.799 56.336C375.687 56.848 373.927 57.52 372.519 58.352L370.215 52.88ZM391.047 76.112C390.407 76.048 389.767 76.016 389.127 76.016C388.487 75.952 387.847 75.92 387.207 75.92C385.671 75.92 384.167 76.048 382.695 76.304C381.223 76.56 379.911 77.008 378.759 77.648C377.607 78.288 376.679 79.152 375.975 80.24C375.335 81.328 375.015 82.704 375.015 84.368C375.015 86.928 375.623 88.912 376.839 90.32C378.119 91.728 379.751 92.432 381.735 92.432C384.423 92.432 386.503 91.792 387.975 90.512C389.447 89.232 390.471 87.824 391.047 86.288V76.112ZM440.229 55.376L436.101 44.816H435.812L436.869 55.376V98H429.957V29.744H434.277L459.141 73.328L463.077 83.408H463.461L462.405 73.328V30.8H469.317V99.056H464.901L440.229 55.376ZM480.653 52.88C482.509 51.728 484.749 50.832 487.373 50.192C490.061 49.552 492.877 49.232 495.821 49.232C498.509 49.232 500.653 49.648 502.253 50.48C503.917 51.248 505.197 52.336 506.093 53.744C507.053 55.088 507.661 56.656 507.917 58.448C508.237 60.176 508.397 62 508.397 63.92C508.397 67.76 508.301 71.504 508.109 75.152C507.981 78.8 507.917 82.256 507.917 85.52C507.917 87.952 507.981 90.224 508.109 92.336C508.301 94.384 508.621 96.336 509.069 98.192H503.789L502.157 92.528H501.773C500.813 94.192 499.405 95.632 497.549 96.848C495.693 98.064 493.197 98.672 490.061 98.672C486.605 98.672 483.757 97.488 481.517 95.12C479.341 92.688 478.253 89.36 478.253 85.136C478.253 82.384 478.701 80.08 479.597 78.224C480.557 76.368 481.869 74.864 483.533 73.712C485.261 72.56 487.277 71.76 489.581 71.312C491.949 70.8 494.573 70.544 497.453 70.544C498.093 70.544 498.733 70.544 499.373 70.544C500.013 70.544 500.685 70.576 501.389 70.64C501.581 68.656 501.677 66.896 501.677 65.36C501.677 61.712 501.133 59.152 500.045 57.68C498.957 56.208 496.973 55.472 494.093 55.472C492.301 55.472 490.349 55.76 488.237 56.336C486.125 56.848 484.365 57.52 482.957 58.352L480.653 52.88ZM501.485 76.112C500.845 76.048 500.205 76.016 499.565 76.016C498.925 75.952 498.285 75.92 497.645 75.92C496.109 75.92 494.605 76.048 493.133 76.304C491.661 76.56 490.349 77.008 489.197 77.648C488.045 78.288 487.117 79.152 486.413 80.24C485.773 81.328 485.453 82.704 485.453 84.368C485.453 86.928 486.061 88.912 487.277 90.32C488.557 91.728 490.189 92.432 492.173 92.432C494.861 92.432 496.941 91.792 498.413 90.512C499.885 89.232 500.909 87.824 501.485 86.288V76.112ZM546.066 95.6C544.466 96.816 542.642 97.712 540.594 98.288C538.546 98.864 536.402 99.152 534.162 99.152C531.09 99.152 528.498 98.576 526.386 97.424C524.274 96.208 522.546 94.512 521.202 92.336C519.922 90.096 518.962 87.44 518.322 84.368C517.746 81.232 517.458 77.776 517.458 74C517.458 65.808 518.898 59.568 521.778 55.28C524.722 50.992 528.914 48.848 534.354 48.848C536.85 48.848 538.994 49.072 540.786 49.52C542.578 49.968 544.114 50.544 545.394 51.248L543.474 57.296C540.914 55.824 538.13 55.088 535.122 55.088C531.666 55.088 529.042 56.624 527.25 59.696C525.522 62.704 524.658 67.472 524.658 74C524.658 76.624 524.85 79.088 525.234 81.392C525.618 83.696 526.258 85.712 527.154 87.44C528.05 89.104 529.202 90.448 530.61 91.472C532.018 92.432 533.778 92.912 535.89 92.912C537.554 92.912 539.09 92.624 540.498 92.048C541.97 91.472 543.154 90.8 544.05 90.032L546.066 95.6ZM554.941 50H561.853V98H554.941V50ZM553.693 35.408C553.693 33.872 554.109 32.624 554.941 31.664C555.837 30.704 556.989 30.224 558.397 30.224C559.805 30.224 560.957 30.704 561.853 31.664C562.813 32.56 563.293 33.808 563.293 35.408C563.293 36.944 562.813 38.16 561.853 39.056C560.957 39.888 559.805 40.304 558.397 40.304C556.989 40.304 555.837 39.856 554.941 38.96C554.109 38.064 553.693 36.88 553.693 35.408ZM572.49 74C572.49 65.36 573.962 59.024 576.906 54.992C579.914 50.896 584.17 48.848 589.674 48.848C595.562 48.848 599.882 50.928 602.634 55.088C605.45 59.248 606.858 65.552 606.858 74C606.858 82.704 605.354 89.072 602.346 93.104C599.338 97.136 595.114 99.152 589.674 99.152C583.786 99.152 579.434 97.072 576.618 92.912C573.866 88.752 572.49 82.448 572.49 74ZM579.69 74C579.69 76.816 579.85 79.376 580.17 81.68C580.554 83.984 581.13 85.968 581.898 87.632C582.73 89.296 583.786 90.608 585.066 91.568C586.346 92.464 587.882 92.912 589.674 92.912C593.002 92.912 595.498 91.44 597.161 88.496C598.826 85.488 599.658 80.656 599.658 74C599.658 71.248 599.466 68.72 599.082 66.416C598.762 64.048 598.186 62.032 597.354 60.368C596.586 58.704 595.562 57.424 594.281 56.528C593.002 55.568 591.466 55.088 589.674 55.088C586.41 55.088 583.914 56.592 582.186 59.6C580.522 62.608 579.69 67.408 579.69 74ZM640.615 98V68.72C640.615 63.92 640.039 60.464 638.887 58.352C637.799 56.176 635.815 55.088 632.935 55.088C630.375 55.088 628.263 55.856 626.599 57.392C624.935 58.928 623.719 60.816 622.951 63.056V98H616.039V50H621.031L622.279 55.088H622.567C623.783 53.36 625.415 51.888 627.463 50.672C629.575 49.456 632.071 48.848 634.951 48.848C636.999 48.848 638.791 49.136 640.327 49.712C641.927 50.288 643.239 51.28 644.263 52.688C645.351 54.032 646.151 55.856 646.663 58.16C647.239 60.464 647.527 63.376 647.527 66.896V98H640.615ZM657.747 52.88C659.603 51.728 661.843 50.832 664.467 50.192C667.155 49.552 669.971 49.232 672.915 49.232C675.603 49.232 677.747 49.648 679.347 50.48C681.011 51.248 682.291 52.336 683.187 53.744C684.147 55.088 684.755 56.656 685.011 58.448C685.331 60.176 685.491 62 685.491 63.92C685.491 67.76 685.395 71.504 685.203 75.152C685.075 78.8 685.011 82.256 685.011 85.52C685.011 87.952 685.075 90.224 685.203 92.336C685.395 94.384 685.715 96.336 686.163 98.192H680.883L679.251 92.528H678.867C677.907 94.192 676.499 95.632 674.643 96.848C672.787 98.064 670.291 98.672 667.155 98.672C663.699 98.672 660.851 97.488 658.611 95.12C656.435 92.688 655.347 89.36 655.347 85.136C655.347 82.384 655.795 80.08 656.691 78.224C657.651 76.368 658.963 74.864 660.627 73.712C662.355 72.56 664.371 71.76 666.674 71.312C669.043 70.8 671.667 70.544 674.547 70.544C675.187 70.544 675.827 70.544 676.467 70.544C677.107 70.544 677.779 70.576 678.483 70.64C678.675 68.656 678.771 66.896 678.771 65.36C678.771 61.712 678.227 59.152 677.139 57.68C676.051 56.208 674.067 55.472 671.187 55.472C669.395 55.472 667.443 55.76 665.331 56.336C663.219 56.848 661.459 57.52 660.051 58.352L657.747 52.88ZM678.579 76.112C677.939 76.048 677.299 76.016 676.659 76.016C676.019 75.952 675.379 75.92 674.739 75.92C673.203 75.92 671.699 76.048 670.227 76.304C668.755 76.56 667.443 77.008 666.291 77.648C665.139 78.288 664.211 79.152 663.507 80.24C662.867 81.328 662.547 82.704 662.547 84.368C662.547 86.928 663.155 88.912 664.371 90.32C665.651 91.728 667.283 92.432 669.267 92.432C671.955 92.432 674.035 91.792 675.507 90.512C676.979 89.232 678.003 87.824 678.579 86.288V76.112ZM704.056 86.576C704.056 88.816 704.344 90.416 704.92 91.376C705.56 92.336 706.424 92.816 707.512 92.816C708.856 92.816 710.424 92.464 712.216 91.76L712.888 97.328C712.056 97.84 710.872 98.256 709.336 98.576C707.864 98.896 706.52 99.056 705.304 99.056C702.872 99.056 700.888 98.32 699.352 96.848C697.88 95.312 697.144 92.656 697.144 88.88V30.8H704.056V86.576ZM769.654 81.488C769.654 84.752 769.686 87.728 769.75 90.416C769.814 93.04 770.038 95.632 770.422 98.192H765.718L764.182 92.432H763.798C762.902 94.352 761.494 95.952 759.574 97.232C757.654 98.512 755.35 99.152 752.662 99.152C747.478 99.152 743.606 97.136 741.046 93.104C738.55 89.072 737.302 82.736 737.302 74.096C737.302 65.904 738.838 59.696 741.91 55.472C745.046 51.248 749.334 49.136 754.774 49.136C756.63 49.136 758.102 49.264 759.19 49.52C760.278 49.712 761.462 50.064 762.742 50.576V30.8H769.654V81.488ZM762.742 57.584C761.846 56.816 760.822 56.272 759.67 55.952C758.582 55.568 757.11 55.376 755.254 55.376C751.862 55.376 749.206 56.912 747.286 59.984C745.43 63.056 744.502 67.792 744.502 74.192C744.502 77.008 744.662 79.568 744.982 81.872C745.366 84.112 745.91 86.064 746.614 87.728C747.382 89.392 748.342 90.672 749.494 91.568C750.71 92.464 752.182 92.912 753.91 92.912C758.518 92.912 761.462 90.192 762.742 84.752V57.584ZM809.649 94.736C808.113 96.144 806.161 97.232 803.793 98C801.425 98.768 798.929 99.152 796.305 99.152C793.297 99.152 790.673 98.576 788.433 97.424C786.257 96.208 784.433 94.512 782.961 92.336C781.553 90.096 780.497 87.44 779.793 84.368C779.153 81.296 778.833 77.84 778.833 74C778.833 65.808 780.337 59.568 783.345 55.28C786.353 50.992 790.609 48.848 796.113 48.848C797.905 48.848 799.665 49.072 801.393 49.52C803.185 49.968 804.785 50.864 806.193 52.208C807.601 53.552 808.721 55.44 809.553 57.872C810.449 60.304 810.897 63.472 810.897 67.376C810.897 68.464 810.833 69.648 810.705 70.928C810.641 72.144 810.545 73.424 810.417 74.768H786.033C786.033 77.52 786.257 80.016 786.705 82.256C787.153 84.496 787.857 86.416 788.817 88.016C789.777 89.552 790.993 90.768 792.465 91.664C794.001 92.496 795.889 92.912 798.129 92.912C799.857 92.912 801.553 92.592 803.217 91.952C804.945 91.312 806.257 90.544 807.153 89.648L809.649 94.736ZM804.273 69.008C804.401 64.208 803.729 60.688 802.257 58.448C800.785 56.208 798.769 55.088 796.209 55.088C793.265 55.088 790.929 56.208 789.201 58.448C787.473 60.688 786.449 64.208 786.129 69.008H804.273ZM876.561 95.408C874.961 96.752 872.945 97.712 870.513 98.288C868.081 98.864 865.521 99.152 862.833 99.152C859.441 99.152 856.305 98.512 853.425 97.232C850.545 95.952 848.049 93.936 845.937 91.184C843.889 88.368 842.289 84.752 841.137 80.336C839.985 75.92 839.409 70.608 839.409 64.4C839.409 58 840.049 52.592 841.329 48.176C842.673 43.76 844.433 40.176 846.609 37.424C848.785 34.672 851.281 32.688 854.097 31.472C856.977 30.256 859.921 29.648 862.929 29.648C866.001 29.648 868.529 29.872 870.513 30.32C872.561 30.768 874.321 31.312 875.793 31.952L874.065 38.48C872.785 37.776 871.281 37.232 869.553 36.848C867.825 36.464 865.841 36.272 863.601 36.272C861.361 36.272 859.249 36.784 857.265 37.808C855.281 38.768 853.521 40.368 851.985 42.608C850.449 44.784 849.233 47.664 848.337 51.248C847.441 54.832 846.993 59.216 846.993 64.4C846.993 73.744 848.593 80.784 851.793 85.52C854.993 90.192 859.249 92.528 864.561 92.528C866.737 92.528 868.689 92.24 870.417 91.664C872.145 91.024 873.617 90.288 874.833 89.456L876.561 95.408ZM886.066 50H892.978V98H886.066V50ZM884.818 35.408C884.818 33.872 885.234 32.624 886.066 31.664C886.962 30.704 888.114 30.224 889.522 30.224C890.93 30.224 892.082 30.704 892.978 31.664C893.938 32.56 894.418 33.808 894.418 35.408C894.418 36.944 893.938 38.16 892.978 39.056C892.082 39.888 890.93 40.304 889.522 40.304C888.114 40.304 886.962 39.856 886.066 38.96C885.234 38.064 884.818 36.88 884.818 35.408ZM934.431 94.736C932.895 96.144 930.943 97.232 928.575 98C926.207 98.768 923.711 99.152 921.087 99.152C918.079 99.152 915.455 98.576 913.215 97.424C911.039 96.208 909.215 94.512 907.743 92.336C906.335 90.096 905.279 87.44 904.575 84.368C903.935 81.296 903.615 77.84 903.615 74C903.615 65.808 905.119 59.568 908.127 55.28C911.135 50.992 915.391 48.848 920.895 48.848C922.687 48.848 924.447 49.072 926.175 49.52C927.967 49.968 929.567 50.864 930.975 52.208C932.383 53.552 933.503 55.44 934.335 57.872C935.231 60.304 935.679 63.472 935.679 67.376C935.679 68.464 935.615 69.648 935.487 70.928C935.423 72.144 935.327 73.424 935.199 74.768H910.815C910.815 77.52 911.039 80.016 911.487 82.256C911.935 84.496 912.639 86.416 913.599 88.016C914.559 89.552 915.775 90.768 917.247 91.664C918.783 92.496 920.671 92.912 922.911 92.912C924.639 92.912 926.335 92.592 927.999 91.952C929.727 91.312 931.039 90.544 931.935 89.648L934.431 94.736ZM929.055 69.008C929.183 64.208 928.511 60.688 927.039 58.448C925.567 56.208 923.551 55.088 920.991 55.088C918.047 55.088 915.711 56.208 913.983 58.448C912.255 60.688 911.231 64.208 910.911 69.008H929.055ZM918.975 27.728H922.335L930.879 45.2H924.831L921.759 38.864L920.223 33.296L918.591 38.864L915.135 45.2H909.471L918.975 27.728ZM969.959 98V68.72C969.959 63.92 969.383 60.464 968.231 58.352C967.143 56.176 965.159 55.088 962.279 55.088C959.719 55.088 957.607 55.856 955.943 57.392C954.279 58.928 953.063 60.816 952.295 63.056V98H945.383V50H950.375L951.623 55.088H951.911C953.127 53.36 954.759 51.888 956.807 50.672C958.919 49.456 961.415 48.848 964.295 48.848C966.343 48.848 968.135 49.136 969.671 49.712C971.271 50.288 972.583 51.28 973.607 52.688C974.695 54.032 975.495 55.856 976.007 58.16C976.583 60.464 976.871 63.376 976.871 66.896V98H969.959ZM1014.07 95.6C1012.47 96.816 1010.64 97.712 1008.59 98.288C1006.55 98.864 1004.4 99.152 1002.16 99.152C999.09 99.152 996.498 98.576 994.386 97.424C992.274 96.208 990.546 94.512 989.202 92.336C987.922 90.096 986.962 87.44 986.322 84.368C985.746 81.232 985.458 77.776 985.458 74C985.458 65.808 986.898 59.568 989.778 55.28C992.722 50.992 996.914 48.848 1002.35 48.848C1004.85 48.848 1006.99 49.072 1008.79 49.52C1010.58 49.968 1012.11 50.544 1013.39 51.248L1011.47 57.296C1008.91 55.824 1006.13 55.088 1003.12 55.088C999.666 55.088 997.042 56.624 995.25 59.696C993.522 62.704 992.658 67.472 992.658 74C992.658 76.624 992.85 79.088 993.234 81.392C993.618 83.696 994.258 85.712 995.154 87.44C996.05 89.104 997.202 90.448 998.61 91.472C1000.02 92.432 1001.78 92.912 1003.89 92.912C1005.55 92.912 1007.09 92.624 1008.5 92.048C1009.97 91.472 1011.15 90.8 1012.05 90.032L1014.07 95.6ZM1022.94 50H1029.85V98H1022.94V50ZM1021.69 35.408C1021.69 33.872 1022.11 32.624 1022.94 31.664C1023.84 30.704 1024.99 30.224 1026.4 30.224C1027.81 30.224 1028.96 30.704 1029.85 31.664C1030.81 32.56 1031.29 33.808 1031.29 35.408C1031.29 36.944 1030.81 38.16 1029.85 39.056C1028.96 39.888 1027.81 40.304 1026.4 40.304C1024.99 40.304 1023.84 39.856 1022.94 38.96C1022.11 38.064 1021.69 36.88 1021.69 35.408ZM1042.12 52.88C1043.98 51.728 1046.22 50.832 1048.84 50.192C1051.53 49.552 1054.35 49.232 1057.29 49.232C1059.98 49.232 1062.12 49.648 1063.72 50.48C1065.39 51.248 1066.67 52.336 1067.56 53.744C1068.52 55.088 1069.13 56.656 1069.39 58.448C1069.71 60.176 1069.87 62 1069.87 63.92C1069.87 67.76 1069.77 71.504 1069.58 75.152C1069.45 78.8 1069.39 82.256 1069.39 85.52C1069.39 87.952 1069.45 90.224 1069.58 92.336C1069.77 94.384 1070.09 96.336 1070.54 98.192H1065.26L1063.63 92.528H1063.24C1062.28 94.192 1060.87 95.632 1059.02 96.848C1057.16 98.064 1054.67 98.672 1051.53 98.672C1048.07 98.672 1045.23 97.488 1042.99 95.12C1040.81 92.688 1039.72 89.36 1039.72 85.136C1039.72 82.384 1040.17 80.08 1041.07 78.224C1042.03 76.368 1043.34 74.864 1045 73.712C1046.73 72.56 1048.75 71.76 1051.05 71.312C1053.42 70.8 1056.04 70.544 1058.92 70.544C1059.56 70.544 1060.2 70.544 1060.84 70.544C1061.48 70.544 1062.15 70.576 1062.86 70.64C1063.05 68.656 1063.15 66.896 1063.15 65.36C1063.15 61.712 1062.6 59.152 1061.51 57.68C1060.43 56.208 1058.44 55.472 1055.56 55.472C1053.77 55.472 1051.82 55.76 1049.71 56.336C1047.59 56.848 1045.83 57.52 1044.43 58.352L1042.12 52.88ZM1062.95 76.112C1062.31 76.048 1061.67 76.016 1061.03 76.016C1060.39 75.952 1059.75 75.92 1059.11 75.92C1057.58 75.92 1056.07 76.048 1054.6 76.304C1053.13 76.56 1051.82 77.008 1050.67 77.648C1049.51 78.288 1048.59 79.152 1047.88 80.24C1047.24 81.328 1046.92 82.704 1046.92 84.368C1046.92 86.928 1047.53 88.912 1048.75 90.32C1050.03 91.728 1051.66 92.432 1053.64 92.432C1056.33 92.432 1058.41 91.792 1059.88 90.512C1061.35 89.232 1062.38 87.824 1062.95 86.288V76.112ZM1130.09 94.736C1128.55 96.144 1126.6 97.232 1124.23 98C1121.86 98.768 1119.37 99.152 1116.74 99.152C1113.73 99.152 1111.11 98.576 1108.87 97.424C1106.69 96.208 1104.87 94.512 1103.4 92.336C1101.99 90.096 1100.93 87.44 1100.23 84.368C1099.59 81.296 1099.27 77.84 1099.27 74C1099.27 65.808 1100.77 59.568 1103.78 55.28C1106.79 50.992 1111.05 48.848 1116.55 48.848C1118.34 48.848 1120.1 49.072 1121.83 49.52C1123.62 49.968 1125.22 50.864 1126.63 52.208C1128.04 53.552 1129.16 55.44 1129.99 57.872C1130.89 60.304 1131.33 63.472 1131.33 67.376C1131.33 68.464 1131.27 69.648 1131.14 70.928C1131.08 72.144 1130.98 73.424 1130.85 74.768H1106.47C1106.47 77.52 1106.69 80.016 1107.14 82.256C1107.59 84.496 1108.29 86.416 1109.25 88.016C1110.21 89.552 1111.43 90.768 1112.9 91.664C1114.44 92.496 1116.33 92.912 1118.57 92.912C1120.29 92.912 1121.99 92.592 1123.65 91.952C1125.38 91.312 1126.69 90.544 1127.59 89.648L1130.09 94.736ZM1124.71 69.008C1124.84 64.208 1124.17 60.688 1122.69 58.448C1121.22 56.208 1119.21 55.088 1116.65 55.088C1113.7 55.088 1111.37 56.208 1109.64 58.448C1107.91 60.688 1106.89 64.208 1106.57 69.008H1124.71ZM1194.76 37.424H1178.24V98H1171.04V37.424H1154.53V30.8H1194.76V37.424ZM1220.65 94.736C1219.11 96.144 1217.16 97.232 1214.79 98C1212.43 98.768 1209.93 99.152 1207.31 99.152C1204.3 99.152 1201.67 98.576 1199.43 97.424C1197.26 96.208 1195.43 94.512 1193.96 92.336C1192.55 90.096 1191.5 87.44 1190.79 84.368C1190.15 81.296 1189.83 77.84 1189.83 74C1189.83 65.808 1191.34 59.568 1194.35 55.28C1197.35 50.992 1201.61 48.848 1207.11 48.848C1208.91 48.848 1210.67 49.072 1212.39 49.52C1214.19 49.968 1215.79 50.864 1217.19 52.208C1218.6 53.552 1219.72 55.44 1220.55 57.872C1221.45 60.304 1221.9 63.472 1221.9 67.376C1221.9 68.464 1221.83 69.648 1221.71 70.928C1221.64 72.144 1221.55 73.424 1221.42 74.768H1197.03C1197.03 77.52 1197.26 80.016 1197.71 82.256C1198.15 84.496 1198.86 86.416 1199.82 88.016C1200.78 89.552 1201.99 90.768 1203.47 91.664C1205 92.496 1206.89 92.912 1209.13 92.912C1210.86 92.912 1212.55 92.592 1214.22 91.952C1215.95 91.312 1217.26 90.544 1218.15 89.648L1220.65 94.736ZM1215.27 69.008C1215.4 64.208 1214.73 60.688 1213.26 58.448C1211.79 56.208 1209.77 55.088 1207.21 55.088C1204.27 55.088 1201.93 56.208 1200.2 58.448C1198.47 60.688 1197.45 64.208 1197.13 69.008H1215.27ZM1257.35 95.6C1255.75 96.816 1253.92 97.712 1251.88 98.288C1249.83 98.864 1247.68 99.152 1245.44 99.152C1242.37 99.152 1239.78 98.576 1237.67 97.424C1235.56 96.208 1233.83 94.512 1232.48 92.336C1231.2 90.096 1230.24 87.44 1229.6 84.368C1229.03 81.232 1228.74 77.776 1228.74 74C1228.74 65.808 1230.18 59.568 1233.06 55.28C1236 50.992 1240.2 48.848 1245.64 48.848C1248.13 48.848 1250.28 49.072 1252.07 49.52C1253.86 49.968 1255.4 50.544 1256.68 51.248L1254.76 57.296C1252.2 55.824 1249.41 55.088 1246.4 55.088C1242.95 55.088 1240.32 56.624 1238.53 59.696C1236.8 62.704 1235.94 67.472 1235.94 74C1235.94 76.624 1236.13 79.088 1236.52 81.392C1236.9 83.696 1237.54 85.712 1238.44 87.44C1239.33 89.104 1240.48 90.448 1241.89 91.472C1243.3 92.432 1245.06 92.912 1247.17 92.912C1248.84 92.912 1250.37 92.624 1251.78 92.048C1253.25 91.472 1254.44 90.8 1255.33 90.032L1257.35 95.6ZM1289.65 98V68.72C1289.65 63.92 1289.07 60.464 1287.92 58.352C1286.83 56.176 1284.85 55.088 1281.97 55.088C1279.41 55.088 1277.29 55.856 1275.63 57.392C1273.97 58.928 1272.75 60.816 1271.98 63.056V98H1265.07V50H1270.06L1271.31 55.088H1271.6C1272.81 53.36 1274.45 51.888 1276.49 50.672C1278.61 49.456 1281.1 48.848 1283.98 48.848C1286.03 48.848 1287.82 49.136 1289.36 49.712C1290.96 50.288 1292.27 51.28 1293.29 52.688C1294.38 54.032 1295.18 55.856 1295.69 58.16C1296.27 60.464 1296.56 63.376 1296.56 66.896V98H1289.65ZM1305.15 74C1305.15 65.36 1306.62 59.024 1309.56 54.992C1312.57 50.896 1316.83 48.848 1322.33 48.848C1328.22 48.848 1332.54 50.928 1335.29 55.088C1338.11 59.248 1339.51 65.552 1339.51 74C1339.51 82.704 1338.01 89.072 1335 93.104C1331.99 97.136 1327.77 99.152 1322.33 99.152C1316.44 99.152 1312.09 97.072 1309.27 92.912C1306.52 88.752 1305.15 82.448 1305.15 74ZM1312.35 74C1312.35 76.816 1312.51 79.376 1312.83 81.68C1313.21 83.984 1313.79 85.968 1314.55 87.632C1315.39 89.296 1316.44 90.608 1317.72 91.568C1319 92.464 1320.54 92.912 1322.33 92.912C1325.66 92.912 1328.15 91.44 1329.82 88.496C1331.48 85.488 1332.31 80.656 1332.31 74C1332.31 71.248 1332.12 68.72 1331.74 66.416C1331.42 64.048 1330.84 62.032 1330.01 60.368C1329.24 58.704 1328.22 57.424 1326.94 56.528C1325.66 55.568 1324.12 55.088 1322.33 55.088C1319.07 55.088 1316.57 56.592 1314.84 59.6C1313.18 62.608 1312.35 67.408 1312.35 74ZM1356.09 86.576C1356.09 88.816 1356.38 90.416 1356.95 91.376C1357.59 92.336 1358.46 92.816 1359.54 92.816C1360.89 92.816 1362.46 92.464 1364.25 91.76L1364.92 97.328C1364.09 97.84 1362.9 98.256 1361.37 98.576C1359.9 98.896 1358.55 99.056 1357.34 99.056C1354.9 99.056 1352.92 98.32 1351.38 96.848C1349.91 95.312 1349.18 92.656 1349.18 88.88V30.8H1356.09V86.576ZM1368.99 74C1368.99 65.36 1370.46 59.024 1373.41 54.992C1376.41 50.896 1380.67 48.848 1386.17 48.848C1392.06 48.848 1396.38 50.928 1399.13 55.088C1401.95 59.248 1403.36 65.552 1403.36 74C1403.36 82.704 1401.85 89.072 1398.85 93.104C1395.84 97.136 1391.61 99.152 1386.17 99.152C1380.29 99.152 1375.93 97.072 1373.12 92.912C1370.37 88.752 1368.99 82.448 1368.99 74ZM1376.19 74C1376.19 76.816 1376.35 79.376 1376.67 81.68C1377.05 83.984 1377.63 85.968 1378.4 87.632C1379.23 89.296 1380.29 90.608 1381.57 91.568C1382.85 92.464 1384.38 92.912 1386.17 92.912C1389.5 92.912 1392 91.44 1393.66 88.496C1395.33 85.488 1396.16 80.656 1396.16 74C1396.16 71.248 1395.97 68.72 1395.58 66.416C1395.26 64.048 1394.69 62.032 1393.85 60.368C1393.09 58.704 1392.06 57.424 1390.78 56.528C1389.5 55.568 1387.97 55.088 1386.17 55.088C1382.91 55.088 1380.41 56.592 1378.69 59.6C1377.02 62.608 1376.19 67.408 1376.19 74ZM1442.78 100.208C1442.78 106.416 1441.4 110.992 1438.65 113.936C1435.9 116.88 1431.9 118.352 1426.65 118.352C1423.45 118.352 1420.83 118.064 1418.78 117.488C1416.73 116.976 1415.07 116.368 1413.79 115.664L1415.8 109.712C1417.08 110.288 1418.49 110.832 1420.03 111.344C1421.56 111.856 1423.45 112.112 1425.69 112.112C1429.6 112.112 1432.25 111.024 1433.66 108.848C1435.13 106.672 1435.87 103.024 1435.87 97.904V94.352H1435.58C1434.56 95.824 1433.24 96.976 1431.64 97.808C1430.04 98.64 1428 99.056 1425.5 99.056C1420.32 99.056 1416.51 97.072 1414.08 93.104C1411.64 89.072 1410.43 82.768 1410.43 74.192C1410.43 65.936 1412 59.696 1415.13 55.472C1418.33 51.248 1423.04 49.136 1429.24 49.136C1432.25 49.136 1434.84 49.424 1437.02 50C1439.2 50.576 1441.12 51.248 1442.78 52.016V100.208ZM1435.87 56.912C1433.95 55.888 1431.48 55.376 1428.48 55.376C1425.21 55.376 1422.59 56.88 1420.6 59.888C1418.62 62.832 1417.63 67.568 1417.63 74.096C1417.63 76.784 1417.79 79.28 1418.11 81.584C1418.43 83.824 1418.97 85.808 1419.74 87.536C1420.51 89.2 1421.47 90.512 1422.62 91.472C1423.84 92.368 1425.31 92.816 1427.04 92.816C1429.47 92.816 1431.39 92.176 1432.8 90.896C1434.2 89.616 1435.23 87.696 1435.87 85.136V56.912ZM1455.13 50H1462.04V98H1455.13V50ZM1453.88 35.408C1453.88 33.872 1454.3 32.624 1455.13 31.664C1456.02 30.704 1457.18 30.224 1458.58 30.224C1459.99 30.224 1461.14 30.704 1462.04 31.664C1463 32.56 1463.48 33.808 1463.48 35.408C1463.48 36.944 1463 38.16 1462.04 39.056C1461.14 39.888 1459.99 40.304 1458.58 40.304C1457.18 40.304 1456.02 39.856 1455.13 38.96C1454.3 38.064 1453.88 36.88 1453.88 35.408ZM1474.31 52.88C1476.17 51.728 1478.41 50.832 1481.03 50.192C1483.72 49.552 1486.53 49.232 1489.48 49.232C1492.17 49.232 1494.31 49.648 1495.91 50.48C1497.57 51.248 1498.85 52.336 1499.75 53.744C1500.71 55.088 1501.32 56.656 1501.57 58.448C1501.89 60.176 1502.05 62 1502.05 63.92C1502.05 67.76 1501.96 71.504 1501.77 75.152C1501.64 78.8 1501.57 82.256 1501.57 85.52C1501.57 87.952 1501.64 90.224 1501.77 92.336C1501.96 94.384 1502.28 96.336 1502.73 98.192H1497.45L1495.81 92.528H1495.43C1494.47 94.192 1493.06 95.632 1491.21 96.848C1489.35 98.064 1486.85 98.672 1483.72 98.672C1480.26 98.672 1477.41 97.488 1475.17 95.12C1473 92.688 1471.91 89.36 1471.91 85.136C1471.91 82.384 1472.36 80.08 1473.25 78.224C1474.21 76.368 1475.53 74.864 1477.19 73.712C1478.92 72.56 1480.93 71.76 1483.24 71.312C1485.61 70.8 1488.23 70.544 1491.11 70.544C1491.75 70.544 1492.39 70.544 1493.03 70.544C1493.67 70.544 1494.34 70.576 1495.05 70.64C1495.24 68.656 1495.33 66.896 1495.33 65.36C1495.33 61.712 1494.79 59.152 1493.7 57.68C1492.61 56.208 1490.63 55.472 1487.75 55.472C1485.96 55.472 1484.01 55.76 1481.89 56.336C1479.78 56.848 1478.02 57.52 1476.61 58.352L1474.31 52.88ZM1495.14 76.112C1494.5 76.048 1493.86 76.016 1493.22 76.016C1492.58 75.952 1491.94 75.92 1491.3 75.92C1489.77 75.92 1488.26 76.048 1486.79 76.304C1485.32 76.56 1484.01 77.008 1482.85 77.648C1481.7 78.288 1480.77 79.152 1480.07 80.24C1479.43 81.328 1479.11 82.704 1479.11 84.368C1479.11 86.928 1479.72 88.912 1480.93 90.32C1482.21 91.728 1483.85 92.432 1485.83 92.432C1488.52 92.432 1490.6 91.792 1492.07 90.512C1493.54 89.232 1494.57 87.824 1495.14 86.288V76.112ZM25.312 168.456H12.64L9.056 181H4.32L17.824 135.496H20.448L33.952 181H28.96L25.312 168.456ZM13.92 164.168H24.16L20.256 150.344L19.04 143.624H18.912L17.696 150.472L13.92 164.168ZM46.2635 149H50.1675V142.664L54.7755 141.192V149H61.6875V153.16H54.7755V172.232C54.7755 174.109 54.9888 175.475 55.4155 176.328C55.8848 177.139 56.6315 177.544 57.6555 177.544C58.5088 177.544 59.2342 177.459 59.8315 177.288C60.4715 177.075 61.1542 176.819 61.8795 176.52L62.7755 180.168C61.8368 180.637 60.7915 181 59.6395 181.256C58.5302 181.555 57.3568 181.704 56.1195 181.704C53.9862 181.704 52.4502 181.021 51.5115 179.656C50.6155 178.248 50.1675 175.987 50.1675 172.872V153.16H46.2635V149ZM67.0885 149H70.3525L71.1845 152.392H71.3765C71.9738 151.155 72.7418 150.195 73.6805 149.512C74.6618 148.787 75.8352 148.424 77.2005 148.424C78.1818 148.424 79.2912 148.616 80.5285 149L79.6325 153.672C78.5232 153.288 77.5418 153.096 76.6885 153.096C75.3232 153.096 74.2138 153.501 73.3605 154.312C72.5072 155.08 71.9525 156.125 71.6965 157.448V181H67.0885V149ZM84.331 150.92C85.5683 150.152 87.0617 149.555 88.811 149.128C90.603 148.701 92.4803 148.488 94.443 148.488C96.235 148.488 97.6643 148.765 98.731 149.32C99.8403 149.832 100.694 150.557 101.291 151.496C101.931 152.392 102.336 153.437 102.507 154.632C102.72 155.784 102.827 157 102.827 158.28C102.827 160.84 102.763 163.336 102.635 165.768C102.55 168.2 102.507 170.504 102.507 172.68C102.507 174.301 102.55 175.816 102.635 177.224C102.763 178.589 102.976 179.891 103.275 181.128H99.755L98.667 177.352H98.411C97.771 178.461 96.8323 179.421 95.595 180.232C94.3577 181.043 92.6937 181.448 90.603 181.448C88.299 181.448 86.4003 180.659 84.907 179.08C83.4563 177.459 82.731 175.24 82.731 172.424C82.731 170.589 83.0297 169.053 83.627 167.816C84.267 166.579 85.1417 165.576 86.251 164.808C87.403 164.04 88.747 163.507 90.283 163.208C91.8617 162.867 93.611 162.696 95.531 162.696C95.9577 162.696 96.3843 162.696 96.811 162.696C97.2377 162.696 97.6857 162.717 98.155 162.76C98.283 161.437 98.347 160.264 98.347 159.24C98.347 156.808 97.9843 155.101 97.259 154.12C96.5337 153.139 95.211 152.648 93.291 152.648C92.0963 152.648 90.795 152.84 89.387 153.224C87.979 153.565 86.8057 154.013 85.867 154.568L84.331 150.92ZM98.219 166.408C97.7923 166.365 97.3657 166.344 96.939 166.344C96.5123 166.301 96.0857 166.28 95.659 166.28C94.635 166.28 93.6323 166.365 92.651 166.536C91.6697 166.707 90.795 167.005 90.027 167.432C89.259 167.859 88.6403 168.435 88.171 169.16C87.7443 169.885 87.531 170.803 87.531 171.912C87.531 173.619 87.9363 174.941 88.747 175.88C89.6003 176.819 90.6883 177.288 92.011 177.288C93.803 177.288 95.1897 176.861 96.171 176.008C97.1523 175.155 97.835 174.216 98.219 173.192V166.408ZM126.66 181V161.48C126.66 158.28 126.276 155.976 125.508 154.568C124.783 153.117 123.46 152.392 121.54 152.392C119.833 152.392 118.425 152.904 117.316 153.928C116.207 154.952 115.396 156.211 114.884 157.704V181H110.276V149H113.604L114.436 152.392H114.628C115.439 151.24 116.527 150.259 117.892 149.448C119.3 148.637 120.964 148.232 122.884 148.232C124.249 148.232 125.444 148.424 126.468 148.808C127.535 149.192 128.409 149.853 129.092 150.792C129.817 151.688 130.351 152.904 130.692 154.44C131.076 155.976 131.268 157.917 131.268 160.264V181H126.66ZM137.889 175.752C138.742 176.264 139.745 176.712 140.897 177.096C142.092 177.437 143.308 177.608 144.545 177.608C145.953 177.608 147.148 177.267 148.129 176.584C149.11 175.859 149.601 174.707 149.601 173.128C149.601 171.805 149.302 170.717 148.705 169.864C148.108 169.011 147.34 168.243 146.401 167.56C145.505 166.877 144.524 166.259 143.457 165.704C142.39 165.107 141.388 164.403 140.449 163.592C139.553 162.781 138.806 161.821 138.209 160.712C137.612 159.603 137.313 158.195 137.313 156.488C137.313 153.757 138.038 151.709 139.489 150.344C140.982 148.936 143.073 148.232 145.761 148.232C147.51 148.232 149.025 148.403 150.305 148.744C151.585 149.043 152.694 149.469 153.633 150.024L152.417 153.864C151.606 153.437 150.668 153.096 149.601 152.84C148.534 152.541 147.446 152.392 146.337 152.392C144.801 152.392 143.67 152.712 142.945 153.352C142.262 153.992 141.921 154.995 141.921 156.36C141.921 157.427 142.22 158.344 142.817 159.112C143.414 159.837 144.161 160.52 145.057 161.16C145.996 161.757 146.998 162.376 148.065 163.016C149.132 163.656 150.113 164.424 151.009 165.32C151.948 166.173 152.716 167.219 153.313 168.456C153.91 169.651 154.209 171.165 154.209 173C154.209 174.195 154.017 175.325 153.633 176.392C153.249 177.459 152.652 178.397 151.841 179.208C151.073 179.976 150.092 180.595 148.897 181.064C147.745 181.533 146.38 181.768 144.801 181.768C142.924 181.768 141.302 181.576 139.937 181.192C138.572 180.851 137.42 180.381 136.481 179.784L137.889 175.752ZM167.77 167.752L169.05 174.088H169.178L170.33 167.624L175.962 149H180.826L169.882 181.704H167.642L156.506 149H161.754L167.77 167.752ZM203.975 178.824C202.951 179.763 201.649 180.488 200.071 181C198.492 181.512 196.828 181.768 195.079 181.768C193.073 181.768 191.324 181.384 189.831 180.616C188.38 179.805 187.164 178.675 186.183 177.224C185.244 175.731 184.54 173.96 184.071 171.912C183.644 169.864 183.431 167.56 183.431 165C183.431 159.539 184.433 155.379 186.439 152.52C188.444 149.661 191.281 148.232 194.951 148.232C196.145 148.232 197.319 148.381 198.471 148.68C199.665 148.979 200.732 149.576 201.671 150.472C202.609 151.368 203.356 152.627 203.911 154.248C204.508 155.869 204.807 157.981 204.807 160.584C204.807 161.309 204.764 162.099 204.679 162.952C204.636 163.763 204.572 164.616 204.487 165.512H188.231C188.231 167.347 188.38 169.011 188.679 170.504C188.977 171.997 189.447 173.277 190.087 174.344C190.727 175.368 191.537 176.179 192.519 176.776C193.543 177.331 194.801 177.608 196.295 177.608C197.447 177.608 198.577 177.395 199.687 176.968C200.839 176.541 201.713 176.029 202.311 175.432L203.975 178.824ZM200.391 161.672C200.476 158.472 200.028 156.125 199.047 154.632C198.065 153.139 196.721 152.392 195.015 152.392C193.052 152.392 191.495 153.139 190.343 154.632C189.191 156.125 188.508 158.472 188.295 161.672H200.391ZM211.276 149H214.54L215.372 152.392H215.564C216.161 151.155 216.929 150.195 217.868 149.512C218.849 148.787 220.023 148.424 221.388 148.424C222.369 148.424 223.479 148.616 224.716 149L223.82 153.672C222.711 153.288 221.729 153.096 220.876 153.096C219.511 153.096 218.401 153.501 217.548 154.312C216.695 155.08 216.14 156.125 215.884 157.448V181H211.276V149ZM228.327 175.752C229.18 176.264 230.183 176.712 231.335 177.096C232.529 177.437 233.745 177.608 234.983 177.608C236.391 177.608 237.585 177.267 238.567 176.584C239.548 175.859 240.039 174.707 240.039 173.128C240.039 171.805 239.74 170.717 239.143 169.864C238.545 169.011 237.777 168.243 236.839 167.56C235.943 166.877 234.961 166.259 233.895 165.704C232.828 165.107 231.825 164.403 230.887 163.592C229.991 162.781 229.244 161.821 228.647 160.712C228.049 159.603 227.751 158.195 227.751 156.488C227.751 153.757 228.476 151.709 229.927 150.344C231.42 148.936 233.511 148.232 236.199 148.232C237.948 148.232 239.463 148.403 240.743 148.744C242.023 149.043 243.132 149.469 244.071 150.024L242.855 153.864C242.044 153.437 241.105 153.096 240.039 152.84C238.972 152.541 237.884 152.392 236.775 152.392C235.239 152.392 234.108 152.712 233.383 153.352C232.7 153.992 232.359 154.995 232.359 156.36C232.359 157.427 232.657 158.344 233.255 159.112C233.852 159.837 234.599 160.52 235.495 161.16C236.433 161.757 237.436 162.376 238.503 163.016C239.569 163.656 240.551 164.424 241.447 165.32C242.385 166.173 243.153 167.219 243.751 168.456C244.348 169.651 244.647 171.165 244.647 173C244.647 174.195 244.455 175.325 244.071 176.392C243.687 177.459 243.089 178.397 242.279 179.208C241.511 179.976 240.529 180.595 239.335 181.064C238.183 181.533 236.817 181.768 235.239 181.768C233.361 181.768 231.74 181.576 230.375 181.192C229.009 180.851 227.857 180.381 226.919 179.784L228.327 175.752ZM250.144 150.92C251.381 150.152 252.874 149.555 254.624 149.128C256.416 148.701 258.293 148.488 260.256 148.488C262.048 148.488 263.477 148.765 264.544 149.32C265.653 149.832 266.506 150.557 267.104 151.496C267.744 152.392 268.149 153.437 268.32 154.632C268.533 155.784 268.64 157 268.64 158.28C268.64 160.84 268.576 163.336 268.448 165.768C268.362 168.2 268.32 170.504 268.32 172.68C268.32 174.301 268.362 175.816 268.448 177.224C268.576 178.589 268.789 179.891 269.088 181.128H265.568L264.48 177.352H264.224C263.584 178.461 262.645 179.421 261.408 180.232C260.17 181.043 258.506 181.448 256.416 181.448C254.112 181.448 252.213 180.659 250.72 179.08C249.269 177.459 248.544 175.24 248.544 172.424C248.544 170.589 248.842 169.053 249.44 167.816C250.08 166.579 250.954 165.576 252.064 164.808C253.216 164.04 254.56 163.507 256.095 163.208C257.674 162.867 259.424 162.696 261.344 162.696C261.77 162.696 262.197 162.696 262.624 162.696C263.05 162.696 263.498 162.717 263.968 162.76C264.096 161.437 264.16 160.264 264.16 159.24C264.16 156.808 263.797 155.101 263.072 154.12C262.346 153.139 261.024 152.648 259.104 152.648C257.909 152.648 256.608 152.84 255.2 153.224C253.792 153.565 252.618 154.013 251.68 154.568L250.144 150.92ZM264.032 166.408C263.605 166.365 263.178 166.344 262.752 166.344C262.325 166.301 261.898 166.28 261.472 166.28C260.448 166.28 259.445 166.365 258.464 166.536C257.482 166.707 256.608 167.005 255.84 167.432C255.072 167.859 254.453 168.435 253.984 169.16C253.557 169.885 253.344 170.803 253.344 171.912C253.344 173.619 253.749 174.941 254.56 175.88C255.413 176.819 256.501 177.288 257.824 177.288C259.616 177.288 261.002 176.861 261.984 176.008C262.965 175.155 263.648 174.216 264.032 173.192V166.408ZM281.017 173.384C281.017 174.877 281.209 175.944 281.593 176.584C282.019 177.224 282.595 177.544 283.321 177.544C284.217 177.544 285.262 177.309 286.457 176.84L286.905 180.552C286.35 180.893 285.561 181.171 284.537 181.384C283.555 181.597 282.659 181.704 281.849 181.704C280.227 181.704 278.905 181.213 277.881 180.232C276.899 179.208 276.409 177.437 276.409 174.92V136.2H281.017V173.384ZM291.794 149H296.402V181H291.794V149ZM290.962 139.272C290.962 138.248 291.239 137.416 291.794 136.776C292.391 136.136 293.159 135.816 294.098 135.816C295.037 135.816 295.805 136.136 296.402 136.776C297.042 137.373 297.362 138.205 297.362 139.272C297.362 140.296 297.042 141.107 296.402 141.704C295.805 142.259 295.037 142.536 294.098 142.536C293.159 142.536 292.391 142.237 291.794 141.64C291.239 141.043 290.962 140.253 290.962 139.272ZM325.061 169.992C325.061 172.168 325.082 174.152 325.125 175.944C325.168 177.693 325.317 179.421 325.573 181.128H322.437L321.413 177.288H321.157C320.56 178.568 319.621 179.635 318.341 180.488C317.061 181.341 315.525 181.768 313.733 181.768C310.277 181.768 307.696 180.424 305.989 177.736C304.325 175.048 303.493 170.824 303.493 165.064C303.493 159.603 304.517 155.464 306.565 152.648C308.656 149.832 311.514 148.424 315.141 148.424C316.378 148.424 317.36 148.509 318.085 148.68C318.81 148.808 319.6 149.043 320.453 149.384V136.2H325.061V169.992ZM320.453 154.056C319.856 153.544 319.173 153.181 318.405 152.968C317.68 152.712 316.698 152.584 315.461 152.584C313.2 152.584 311.429 153.608 310.149 155.656C308.912 157.704 308.293 160.861 308.293 165.128C308.293 167.005 308.4 168.712 308.613 170.248C308.869 171.741 309.232 173.043 309.701 174.152C310.213 175.261 310.853 176.115 311.621 176.712C312.432 177.309 313.413 177.608 314.565 177.608C317.637 177.608 319.6 175.795 320.453 172.168V154.056ZM332.269 150.92C333.506 150.152 334.999 149.555 336.749 149.128C338.541 148.701 340.418 148.488 342.381 148.488C344.173 148.488 345.602 148.765 346.669 149.32C347.778 149.832 348.631 150.557 349.229 151.496C349.869 152.392 350.274 153.437 350.445 154.632C350.658 155.784 350.765 157 350.765 158.28C350.765 160.84 350.701 163.336 350.573 165.768C350.487 168.2 350.445 170.504 350.445 172.68C350.445 174.301 350.487 175.816 350.573 177.224C350.701 178.589 350.914 179.891 351.213 181.128H347.693L346.605 177.352H346.349C345.709 178.461 344.77 179.421 343.533 180.232C342.295 181.043 340.631 181.448 338.541 181.448C336.237 181.448 334.338 180.659 332.845 179.08C331.394 177.459 330.669 175.24 330.669 172.424C330.669 170.589 330.967 169.053 331.565 167.816C332.205 166.579 333.079 165.576 334.189 164.808C335.341 164.04 336.685 163.507 338.22 163.208C339.799 162.867 341.549 162.696 343.469 162.696C343.895 162.696 344.322 162.696 344.749 162.696C345.175 162.696 345.623 162.717 346.093 162.76C346.221 161.437 346.285 160.264 346.285 159.24C346.285 156.808 345.922 155.101 345.197 154.12C344.471 153.139 343.149 152.648 341.229 152.648C340.034 152.648 338.733 152.84 337.325 153.224C335.917 153.565 334.743 154.013 333.805 154.568L332.269 150.92ZM346.157 166.408C345.73 166.365 345.303 166.344 344.877 166.344C344.45 166.301 344.023 166.28 343.597 166.28C342.573 166.28 341.57 166.365 340.589 166.536C339.607 166.707 338.733 167.005 337.965 167.432C337.197 167.859 336.578 168.435 336.109 169.16C335.682 169.885 335.469 170.803 335.469 171.912C335.469 173.619 335.874 174.941 336.685 175.88C337.538 176.819 338.626 177.288 339.949 177.288C341.741 177.288 343.127 176.861 344.109 176.008C345.09 175.155 345.773 174.216 346.157 173.192V166.408ZM378.374 169.992C378.374 172.168 378.395 174.152 378.438 175.944C378.48 177.693 378.63 179.421 378.886 181.128H375.75L374.726 177.288H374.47C373.872 178.568 372.934 179.635 371.654 180.488C370.374 181.341 368.838 181.768 367.046 181.768C363.59 181.768 361.008 180.424 359.302 177.736C357.638 175.048 356.806 170.824 356.806 165.064C356.806 159.603 357.83 155.464 359.878 152.648C361.968 149.832 364.827 148.424 368.454 148.424C369.691 148.424 370.672 148.509 371.398 148.68C372.123 148.808 372.912 149.043 373.766 149.384V136.2H378.374V169.992ZM373.766 154.056C373.168 153.544 372.486 153.181 371.718 152.968C370.992 152.712 370.011 152.584 368.774 152.584C366.512 152.584 364.742 153.608 363.462 155.656C362.224 157.704 361.606 160.861 361.606 165.128C361.606 167.005 361.712 168.712 361.926 170.248C362.182 171.741 362.544 173.043 363.014 174.152C363.526 175.261 364.166 176.115 364.934 176.712C365.744 177.309 366.726 177.608 367.878 177.608C370.95 177.608 372.912 175.795 373.766 172.168V154.056ZM405.037 178.824C404.013 179.763 402.712 180.488 401.133 181C399.554 181.512 397.89 181.768 396.141 181.768C394.136 181.768 392.386 181.384 390.893 180.616C389.442 179.805 388.226 178.675 387.245 177.224C386.306 175.731 385.602 173.96 385.133 171.912C384.706 169.864 384.493 167.56 384.493 165C384.493 159.539 385.496 155.379 387.501 152.52C389.506 149.661 392.344 148.232 396.013 148.232C397.208 148.232 398.381 148.381 399.533 148.68C400.728 148.979 401.794 149.576 402.733 150.472C403.672 151.368 404.418 152.627 404.973 154.248C405.57 155.869 405.869 157.981 405.869 160.584C405.869 161.309 405.826 162.099 405.741 162.952C405.698 163.763 405.634 164.616 405.549 165.512H389.293C389.293 167.347 389.442 169.011 389.741 170.504C390.04 171.997 390.509 173.277 391.149 174.344C391.789 175.368 392.6 176.179 393.581 176.776C394.605 177.331 395.864 177.608 397.357 177.608C398.509 177.608 399.64 177.395 400.749 176.968C401.901 176.541 402.776 176.029 403.373 175.432L405.037 178.824ZM401.453 161.672C401.538 158.472 401.09 156.125 400.109 154.632C399.128 153.139 397.784 152.392 396.077 152.392C394.114 152.392 392.557 153.139 391.405 154.632C390.253 156.125 389.57 158.472 389.357 161.672H401.453ZM446.061 169.992C446.061 172.168 446.082 174.152 446.125 175.944C446.168 177.693 446.317 179.421 446.573 181.128H443.437L442.413 177.288H442.157C441.56 178.568 440.621 179.635 439.341 180.488C438.061 181.341 436.525 181.768 434.733 181.768C431.277 181.768 428.696 180.424 426.989 177.736C425.325 175.048 424.493 170.824 424.493 165.064C424.493 159.603 425.517 155.464 427.565 152.648C429.656 149.832 432.514 148.424 436.141 148.424C437.378 148.424 438.36 148.509 439.085 148.68C439.81 148.808 440.6 149.043 441.453 149.384V136.2H446.061V169.992ZM441.453 154.056C440.856 153.544 440.173 153.181 439.405 152.968C438.68 152.712 437.698 152.584 436.461 152.584C434.2 152.584 432.429 153.608 431.149 155.656C429.912 157.704 429.293 160.861 429.293 165.128C429.293 167.005 429.4 168.712 429.613 170.248C429.869 171.741 430.232 173.043 430.701 174.152C431.213 175.261 431.853 176.115 432.621 176.712C433.432 177.309 434.413 177.608 435.565 177.608C438.637 177.608 440.6 175.795 441.453 172.168V154.056ZM453.269 150.92C454.506 150.152 455.999 149.555 457.749 149.128C459.541 148.701 461.418 148.488 463.381 148.488C465.173 148.488 466.602 148.765 467.669 149.32C468.778 149.832 469.631 150.557 470.229 151.496C470.869 152.392 471.274 153.437 471.445 154.632C471.658 155.784 471.765 157 471.765 158.28C471.765 160.84 471.701 163.336 471.573 165.768C471.487 168.2 471.445 170.504 471.445 172.68C471.445 174.301 471.487 175.816 471.573 177.224C471.701 178.589 471.914 179.891 472.213 181.128H468.693L467.605 177.352H467.349C466.709 178.461 465.77 179.421 464.533 180.232C463.295 181.043 461.631 181.448 459.541 181.448C457.237 181.448 455.338 180.659 453.845 179.08C452.394 177.459 451.669 175.24 451.669 172.424C451.669 170.589 451.967 169.053 452.565 167.816C453.205 166.579 454.079 165.576 455.189 164.808C456.341 164.04 457.685 163.507 459.22 163.208C460.799 162.867 462.549 162.696 464.469 162.696C464.895 162.696 465.322 162.696 465.749 162.696C466.175 162.696 466.623 162.717 467.093 162.76C467.221 161.437 467.285 160.264 467.285 159.24C467.285 156.808 466.922 155.101 466.197 154.12C465.471 153.139 464.149 152.648 462.229 152.648C461.034 152.648 459.733 152.84 458.325 153.224C456.917 153.565 455.743 154.013 454.805 154.568L453.269 150.92ZM467.157 166.408C466.73 166.365 466.303 166.344 465.877 166.344C465.45 166.301 465.023 166.28 464.597 166.28C463.573 166.28 462.57 166.365 461.589 166.536C460.607 166.707 459.733 167.005 458.965 167.432C458.197 167.859 457.578 168.435 457.109 169.16C456.682 169.885 456.469 170.803 456.469 171.912C456.469 173.619 456.874 174.941 457.685 175.88C458.538 176.819 459.626 177.288 460.949 177.288C462.741 177.288 464.127 176.861 465.109 176.008C466.09 175.155 466.773 174.216 467.157 173.192V166.408ZM516.52 179.272C515.453 180.168 514.109 180.808 512.488 181.192C510.867 181.576 509.16 181.768 507.368 181.768C505.107 181.768 503.016 181.341 501.096 180.488C499.176 179.635 497.512 178.291 496.104 176.456C494.739 174.579 493.672 172.168 492.904 169.224C492.136 166.28 491.752 162.739 491.752 158.6C491.752 154.333 492.179 150.728 493.032 147.784C493.928 144.84 495.101 142.451 496.552 140.616C498.003 138.781 499.667 137.459 501.544 136.648C503.464 135.837 505.427 135.432 507.432 135.432C509.48 135.432 511.165 135.581 512.488 135.88C513.853 136.179 515.027 136.541 516.008 136.968L514.856 141.32C514.003 140.851 513 140.488 511.848 140.232C510.696 139.976 509.373 139.848 507.88 139.848C506.387 139.848 504.979 140.189 503.656 140.872C502.333 141.512 501.16 142.579 500.136 144.072C499.112 145.523 498.301 147.443 497.704 149.832C497.107 152.221 496.808 155.144 496.808 158.6C496.808 164.829 497.875 169.523 500.008 172.68C502.141 175.795 504.979 177.352 508.52 177.352C509.971 177.352 511.272 177.16 512.424 176.776C513.576 176.349 514.557 175.859 515.368 175.304L516.52 179.272ZM522.857 149H527.465V181H522.857V149ZM522.025 139.272C522.025 138.248 522.302 137.416 522.857 136.776C523.454 136.136 524.222 135.816 525.161 135.816C526.099 135.816 526.867 136.136 527.465 136.776C528.105 137.373 528.425 138.205 528.425 139.272C528.425 140.296 528.105 141.107 527.465 141.704C526.867 142.259 526.099 142.536 525.161 142.536C524.222 142.536 523.454 142.237 522.857 141.64C522.302 141.043 522.025 140.253 522.025 139.272ZM555.1 178.824C554.076 179.763 552.774 180.488 551.196 181C549.617 181.512 547.953 181.768 546.204 181.768C544.198 181.768 542.449 181.384 540.956 180.616C539.505 179.805 538.289 178.675 537.308 177.224C536.369 175.731 535.665 173.96 535.196 171.912C534.769 169.864 534.556 167.56 534.556 165C534.556 159.539 535.558 155.379 537.564 152.52C539.569 149.661 542.406 148.232 546.076 148.232C547.27 148.232 548.444 148.381 549.596 148.68C550.79 148.979 551.857 149.576 552.796 150.472C553.734 151.368 554.481 152.627 555.036 154.248C555.633 155.869 555.932 157.981 555.932 160.584C555.932 161.309 555.889 162.099 555.804 162.952C555.761 163.763 555.697 164.616 555.612 165.512H539.356C539.356 167.347 539.505 169.011 539.804 170.504C540.102 171.997 540.572 173.277 541.212 174.344C541.852 175.368 542.662 176.179 543.644 176.776C544.668 177.331 545.926 177.608 547.42 177.608C548.572 177.608 549.702 177.395 550.812 176.968C551.964 176.541 552.838 176.029 553.436 175.432L555.1 178.824ZM551.516 161.672C551.601 158.472 551.153 156.125 550.172 154.632C549.19 153.139 547.846 152.392 546.14 152.392C544.177 152.392 542.62 153.139 541.468 154.632C540.316 156.125 539.633 158.472 539.42 161.672H551.516ZM544.796 134.152H547.036L552.732 145.8H548.7L546.652 141.576L545.628 137.864L544.54 141.576L542.236 145.8H538.46L544.796 134.152ZM578.785 181V161.48C578.785 158.28 578.401 155.976 577.633 154.568C576.908 153.117 575.585 152.392 573.665 152.392C571.958 152.392 570.55 152.904 569.441 153.928C568.332 154.952 567.521 156.211 567.009 157.704V181H562.401V149H565.729L566.561 152.392H566.753C567.564 151.24 568.652 150.259 570.017 149.448C571.425 148.637 573.089 148.232 575.009 148.232C576.374 148.232 577.569 148.424 578.593 148.808C579.66 149.192 580.534 149.853 581.217 150.792C581.942 151.688 582.476 152.904 582.817 154.44C583.201 155.976 583.393 157.917 583.393 160.264V181H578.785ZM608.19 179.4C607.123 180.211 605.907 180.808 604.542 181.192C603.177 181.576 601.747 181.768 600.254 181.768C598.206 181.768 596.478 181.384 595.07 180.616C593.662 179.805 592.51 178.675 591.614 177.224C590.761 175.731 590.121 173.96 589.694 171.912C589.31 169.821 589.118 167.517 589.118 165C589.118 159.539 590.078 155.379 591.998 152.52C593.961 149.661 596.755 148.232 600.382 148.232C602.046 148.232 603.475 148.381 604.67 148.68C605.865 148.979 606.889 149.363 607.742 149.832L606.462 153.864C604.755 152.883 602.899 152.392 600.894 152.392C598.59 152.392 596.841 153.416 595.646 155.464C594.494 157.469 593.918 160.648 593.918 165C593.918 166.749 594.046 168.392 594.302 169.928C594.558 171.464 594.985 172.808 595.582 173.96C596.179 175.069 596.947 175.965 597.886 176.648C598.825 177.288 599.998 177.608 601.406 177.608C602.515 177.608 603.539 177.416 604.478 177.032C605.459 176.648 606.249 176.2 606.846 175.688L608.19 179.4ZM614.107 149H618.715V181H614.107V149ZM613.275 139.272C613.275 138.248 613.552 137.416 614.107 136.776C614.704 136.136 615.472 135.816 616.411 135.816C617.349 135.816 618.117 136.136 618.715 136.776C619.355 137.373 619.675 138.205 619.675 139.272C619.675 140.296 619.355 141.107 618.715 141.704C618.117 142.259 617.349 142.536 616.411 142.536C615.472 142.536 614.704 142.237 614.107 141.64C613.552 141.043 613.275 140.253 613.275 139.272ZM626.894 150.92C628.131 150.152 629.624 149.555 631.374 149.128C633.166 148.701 635.043 148.488 637.006 148.488C638.798 148.488 640.227 148.765 641.294 149.32C642.403 149.832 643.256 150.557 643.854 151.496C644.494 152.392 644.899 153.437 645.07 154.632C645.283 155.784 645.39 157 645.39 158.28C645.39 160.84 645.326 163.336 645.198 165.768C645.112 168.2 645.07 170.504 645.07 172.68C645.07 174.301 645.112 175.816 645.198 177.224C645.326 178.589 645.539 179.891 645.838 181.128H642.318L641.23 177.352H640.974C640.334 178.461 639.395 179.421 638.158 180.232C636.92 181.043 635.256 181.448 633.166 181.448C630.862 181.448 628.963 180.659 627.47 179.08C626.019 177.459 625.294 175.24 625.294 172.424C625.294 170.589 625.592 169.053 626.19 167.816C626.83 166.579 627.704 165.576 628.814 164.808C629.966 164.04 631.31 163.507 632.845 163.208C634.424 162.867 636.174 162.696 638.094 162.696C638.52 162.696 638.947 162.696 639.374 162.696C639.8 162.696 640.248 162.717 640.718 162.76C640.846 161.437 640.91 160.264 640.91 159.24C640.91 156.808 640.547 155.101 639.822 154.12C639.096 153.139 637.774 152.648 635.854 152.648C634.659 152.648 633.358 152.84 631.95 153.224C630.542 153.565 629.368 154.013 628.43 154.568L626.894 150.92ZM640.782 166.408C640.355 166.365 639.928 166.344 639.502 166.344C639.075 166.301 638.648 166.28 638.222 166.28C637.198 166.28 636.195 166.365 635.214 166.536C634.232 166.707 633.358 167.005 632.59 167.432C631.822 167.859 631.203 168.435 630.734 169.16C630.307 169.885 630.094 170.803 630.094 171.912C630.094 173.619 630.499 174.941 631.31 175.88C632.163 176.819 633.251 177.288 634.574 177.288C636.366 177.288 637.752 176.861 638.734 176.008C639.715 175.155 640.398 174.216 640.782 173.192V166.408ZM651.367 178.248C651.367 177.181 651.665 176.328 652.263 175.688C652.903 175.048 653.713 174.728 654.695 174.728C655.804 174.728 656.7 175.176 657.383 176.072C658.108 176.968 658.47 178.376 658.47 180.296C658.47 181.704 658.279 182.963 657.895 184.072C657.553 185.224 657.084 186.227 656.487 187.08C655.932 187.933 655.313 188.637 654.631 189.192C653.948 189.747 653.287 190.152 652.647 190.408L651.047 188.232C651.601 187.933 652.113 187.528 652.583 187.016C653.095 186.547 653.5 186.013 653.799 185.416C654.14 184.819 654.396 184.179 654.567 183.496C654.737 182.856 654.823 182.216 654.823 181.576C653.969 181.832 653.18 181.661 652.455 181.064C651.729 180.467 651.367 179.528 651.367 178.248ZM696.275 140.616H685.267V181H680.467V140.616H669.459V136.2H696.275V140.616ZM713.537 178.824C712.513 179.763 711.212 180.488 709.633 181C708.054 181.512 706.39 181.768 704.641 181.768C702.636 181.768 700.886 181.384 699.393 180.616C697.942 179.805 696.726 178.675 695.745 177.224C694.806 175.731 694.102 173.96 693.633 171.912C693.206 169.864 692.993 167.56 692.993 165C692.993 159.539 693.996 155.379 696.001 152.52C698.006 149.661 700.844 148.232 704.513 148.232C705.708 148.232 706.881 148.381 708.033 148.68C709.228 148.979 710.294 149.576 711.233 150.472C712.172 151.368 712.918 152.627 713.473 154.248C714.07 155.869 714.369 157.981 714.369 160.584C714.369 161.309 714.326 162.099 714.241 162.952C714.198 163.763 714.134 164.616 714.049 165.512H697.793C697.793 167.347 697.942 169.011 698.241 170.504C698.54 171.997 699.009 173.277 699.649 174.344C700.289 175.368 701.1 176.179 702.081 176.776C703.105 177.331 704.364 177.608 705.857 177.608C707.009 177.608 708.14 177.395 709.249 176.968C710.401 176.541 711.276 176.029 711.873 175.432L713.537 178.824ZM709.953 161.672C710.038 158.472 709.59 156.125 708.609 154.632C707.628 153.139 706.284 152.392 704.577 152.392C702.614 152.392 701.057 153.139 699.905 154.632C698.753 156.125 698.07 158.472 697.857 161.672H709.953ZM738.003 179.4C736.936 180.211 735.72 180.808 734.355 181.192C732.989 181.576 731.56 181.768 730.067 181.768C728.019 181.768 726.291 181.384 724.883 180.616C723.475 179.805 722.323 178.675 721.427 177.224C720.573 175.731 719.933 173.96 719.507 171.912C719.123 169.821 718.931 167.517 718.931 165C718.931 159.539 719.891 155.379 721.811 152.52C723.773 149.661 726.568 148.232 730.195 148.232C731.859 148.232 733.288 148.381 734.483 148.68C735.677 148.979 736.701 149.363 737.555 149.832L736.275 153.864C734.568 152.883 732.712 152.392 730.707 152.392C728.403 152.392 726.653 153.416 725.459 155.464C724.307 157.469 723.731 160.648 723.731 165C723.731 166.749 723.859 168.392 724.115 169.928C724.371 171.464 724.797 172.808 725.395 173.96C725.992 175.069 726.76 175.965 727.699 176.648C728.637 177.288 729.811 177.608 731.219 177.608C732.328 177.608 733.352 177.416 734.291 177.032C735.272 176.648 736.061 176.2 736.659 175.688L738.003 179.4ZM759.535 181V161.48C759.535 158.28 759.151 155.976 758.383 154.568C757.658 153.117 756.335 152.392 754.415 152.392C752.708 152.392 751.3 152.904 750.191 153.928C749.082 154.952 748.271 156.211 747.759 157.704V181H743.151V149H746.479L747.311 152.392H747.503C748.314 151.24 749.402 150.259 750.767 149.448C752.175 148.637 753.839 148.232 755.759 148.232C757.124 148.232 758.319 148.424 759.343 148.808C760.41 149.192 761.284 149.853 761.967 150.792C762.692 151.688 763.226 152.904 763.567 154.44C763.951 155.976 764.143 157.917 764.143 160.264V181H759.535ZM769.868 165C769.868 159.24 770.849 155.016 772.812 152.328C774.817 149.597 777.655 148.232 781.324 148.232C785.249 148.232 788.129 149.619 789.964 152.392C791.841 155.165 792.78 159.368 792.78 165C792.78 170.803 791.777 175.048 789.772 177.736C787.767 180.424 784.951 181.768 781.324 181.768C777.399 181.768 774.497 180.381 772.62 177.608C770.785 174.835 769.868 170.632 769.868 165ZM774.668 165C774.668 166.877 774.775 168.584 774.988 170.12C775.244 171.656 775.628 172.979 776.14 174.088C776.695 175.197 777.399 176.072 778.252 176.712C779.105 177.309 780.129 177.608 781.324 177.608C783.543 177.608 785.207 176.627 786.316 174.664C787.425 172.659 787.98 169.437 787.98 165C787.98 163.165 787.852 161.48 787.596 159.944C787.383 158.365 786.999 157.021 786.444 155.912C785.932 154.803 785.249 153.949 784.396 153.352C783.543 152.712 782.519 152.392 781.324 152.392C779.148 152.392 777.484 153.395 776.332 155.4C775.223 157.405 774.668 160.605 774.668 165ZM803.829 173.384C803.829 174.877 804.021 175.944 804.405 176.584C804.832 177.224 805.408 177.544 806.133 177.544C807.029 177.544 808.074 177.309 809.269 176.84L809.717 180.552C809.162 180.893 808.373 181.171 807.349 181.384C806.368 181.597 805.472 181.704 804.661 181.704C803.04 181.704 801.717 181.213 800.693 180.232C799.712 179.208 799.221 177.437 799.221 174.92V136.2H803.829V173.384ZM812.431 165C812.431 159.24 813.412 155.016 815.375 152.328C817.38 149.597 820.217 148.232 823.887 148.232C827.812 148.232 830.692 149.619 832.527 152.392C834.404 155.165 835.343 159.368 835.343 165C835.343 170.803 834.34 175.048 832.335 177.736C830.329 180.424 827.513 181.768 823.887 181.768C819.961 181.768 817.06 180.381 815.183 177.608C813.348 174.835 812.431 170.632 812.431 165ZM817.231 165C817.231 166.877 817.337 168.584 817.551 170.12C817.807 171.656 818.191 172.979 818.703 174.088C819.257 175.197 819.961 176.072 820.815 176.712C821.668 177.309 822.692 177.608 823.887 177.608C826.105 177.608 827.769 176.627 828.878 174.664C829.988 172.659 830.543 169.437 830.543 165C830.543 163.165 830.415 161.48 830.159 159.944C829.945 158.365 829.561 157.021 829.007 155.912C828.495 154.803 827.812 153.949 826.958 153.352C826.105 152.712 825.081 152.392 823.887 152.392C821.711 152.392 820.047 153.395 818.895 155.4C817.785 157.405 817.231 160.605 817.231 165ZM861.624 182.472C861.624 186.611 860.706 189.661 858.872 191.624C857.037 193.587 854.37 194.568 850.872 194.568C848.738 194.568 846.989 194.376 845.624 193.992C844.258 193.651 843.149 193.245 842.296 192.776L843.64 188.808C844.493 189.192 845.432 189.555 846.456 189.896C847.48 190.237 848.738 190.408 850.232 190.408C852.834 190.408 854.605 189.683 855.544 188.232C856.525 186.781 857.016 184.349 857.016 180.936V178.568H856.824C856.141 179.549 855.266 180.317 854.2 180.872C853.133 181.427 851.768 181.704 850.104 181.704C846.648 181.704 844.109 180.381 842.488 177.736C840.866 175.048 840.056 170.845 840.056 165.128C840.056 159.624 841.101 155.464 843.192 152.648C845.325 149.832 848.461 148.424 852.6 148.424C854.605 148.424 856.333 148.616 857.784 149C859.234 149.384 860.514 149.832 861.624 150.344V182.472ZM857.016 153.608C855.736 152.925 854.093 152.584 852.088 152.584C849.912 152.584 848.162 153.587 846.84 155.592C845.517 157.555 844.856 160.712 844.856 165.064C844.856 166.856 844.962 168.52 845.176 170.056C845.389 171.549 845.752 172.872 846.264 174.024C846.776 175.133 847.416 176.008 848.184 176.648C848.994 177.245 849.976 177.544 851.128 177.544C852.749 177.544 854.029 177.117 854.968 176.264C855.906 175.411 856.589 174.131 857.016 172.424V153.608ZM869.857 149H874.465V181H869.857V149ZM869.025 139.272C869.025 138.248 869.302 137.416 869.857 136.776C870.454 136.136 871.222 135.816 872.161 135.816C873.099 135.816 873.867 136.136 874.465 136.776C875.105 137.373 875.425 138.205 875.425 139.272C875.425 140.296 875.105 141.107 874.465 141.704C873.867 142.259 873.099 142.536 872.161 142.536C871.222 142.536 870.454 142.237 869.857 141.64C869.302 141.043 869.025 140.253 869.025 139.272ZM882.644 150.92C883.881 150.152 885.374 149.555 887.124 149.128C888.916 148.701 890.793 148.488 892.756 148.488C894.548 148.488 895.977 148.765 897.044 149.32C898.153 149.832 899.006 150.557 899.604 151.496C900.244 152.392 900.649 153.437 900.82 154.632C901.033 155.784 901.14 157 901.14 158.28C901.14 160.84 901.076 163.336 900.948 165.768C900.862 168.2 900.82 170.504 900.82 172.68C900.82 174.301 900.862 175.816 900.948 177.224C901.076 178.589 901.289 179.891 901.588 181.128H898.068L896.98 177.352H896.724C896.084 178.461 895.145 179.421 893.908 180.232C892.67 181.043 891.006 181.448 888.916 181.448C886.612 181.448 884.713 180.659 883.22 179.08C881.769 177.459 881.044 175.24 881.044 172.424C881.044 170.589 881.342 169.053 881.94 167.816C882.58 166.579 883.454 165.576 884.564 164.808C885.716 164.04 887.06 163.507 888.595 163.208C890.174 162.867 891.924 162.696 893.844 162.696C894.27 162.696 894.697 162.696 895.124 162.696C895.55 162.696 895.998 162.717 896.468 162.76C896.596 161.437 896.66 160.264 896.66 159.24C896.66 156.808 896.297 155.101 895.572 154.12C894.846 153.139 893.524 152.648 891.604 152.648C890.409 152.648 889.108 152.84 887.7 153.224C886.292 153.565 885.118 154.013 884.18 154.568L882.644 150.92ZM896.532 166.408C896.105 166.365 895.678 166.344 895.252 166.344C894.825 166.301 894.398 166.28 893.972 166.28C892.948 166.28 891.945 166.365 890.964 166.536C889.982 166.707 889.108 167.005 888.34 167.432C887.572 167.859 886.953 168.435 886.484 169.16C886.057 169.885 885.844 170.803 885.844 171.912C885.844 173.619 886.249 174.941 887.06 175.88C887.913 176.819 889.001 177.288 890.324 177.288C892.116 177.288 893.502 176.861 894.484 176.008C895.465 175.155 896.148 174.216 896.532 173.192V166.408ZM941.287 178.824C940.263 179.763 938.962 180.488 937.383 181C935.804 181.512 934.14 181.768 932.391 181.768C930.386 181.768 928.636 181.384 927.143 180.616C925.692 179.805 924.476 178.675 923.495 177.224C922.556 175.731 921.852 173.96 921.383 171.912C920.956 169.864 920.743 167.56 920.743 165C920.743 159.539 921.746 155.379 923.751 152.52C925.756 149.661 928.594 148.232 932.263 148.232C933.458 148.232 934.631 148.381 935.783 148.68C936.978 148.979 938.044 149.576 938.983 150.472C939.922 151.368 940.668 152.627 941.223 154.248C941.82 155.869 942.119 157.981 942.119 160.584C942.119 161.309 942.076 162.099 941.991 162.952C941.948 163.763 941.884 164.616 941.799 165.512H925.543C925.543 167.347 925.692 169.011 925.991 170.504C926.29 171.997 926.759 173.277 927.399 174.344C928.039 175.368 928.85 176.179 929.831 176.776C930.855 177.331 932.114 177.608 933.607 177.608C934.759 177.608 935.89 177.395 936.999 176.968C938.151 176.541 939.026 176.029 939.623 175.432L941.287 178.824ZM937.703 161.672C937.788 158.472 937.34 156.125 936.359 154.632C935.378 153.139 934.034 152.392 932.327 152.392C930.364 152.392 928.807 153.139 927.655 154.632C926.503 156.125 925.82 158.472 925.607 161.672H937.703ZM963.431 136.2H968.231V181H963.431V136.2ZM993.473 181V161.48C993.473 158.28 993.089 155.976 992.321 154.568C991.595 153.117 990.273 152.392 988.353 152.392C986.646 152.392 985.238 152.904 984.129 153.928C983.019 154.952 982.209 156.211 981.697 157.704V181H977.089V149H980.417L981.249 152.392H981.441C982.251 151.24 983.339 150.259 984.705 149.448C986.113 148.637 987.777 148.232 989.697 148.232C991.062 148.232 992.257 148.424 993.281 148.808C994.347 149.192 995.222 149.853 995.905 150.792C996.63 151.688 997.163 152.904 997.505 154.44C997.889 155.976 998.081 157.917 998.081 160.264V181H993.473ZM1003.81 165C1003.81 159.24 1004.79 155.016 1006.75 152.328C1008.75 149.597 1011.59 148.232 1015.26 148.232C1019.19 148.232 1022.07 149.619 1023.9 152.392C1025.78 155.165 1026.72 159.368 1026.72 165C1026.72 170.803 1025.71 175.048 1023.71 177.736C1021.7 180.424 1018.89 181.768 1015.26 181.768C1011.34 181.768 1008.43 180.381 1006.56 177.608C1004.72 174.835 1003.81 170.632 1003.81 165ZM1008.61 165C1008.61 166.877 1008.71 168.584 1008.93 170.12C1009.18 171.656 1009.57 172.979 1010.08 174.088C1010.63 175.197 1011.34 176.072 1012.19 176.712C1013.04 177.309 1014.07 177.608 1015.26 177.608C1017.48 177.608 1019.14 176.627 1020.25 174.664C1021.36 172.659 1021.92 169.437 1021.92 165C1021.92 163.165 1021.79 161.48 1021.53 159.944C1021.32 158.365 1020.94 157.021 1020.38 155.912C1019.87 154.803 1019.19 153.949 1018.33 153.352C1017.48 152.712 1016.46 152.392 1015.26 152.392C1013.09 152.392 1011.42 153.395 1010.27 155.4C1009.16 157.405 1008.61 160.605 1008.61 165ZM1039.96 167.752L1041.24 174.088H1041.37L1042.52 167.624L1048.15 149H1053.01L1042.07 181.704H1039.83L1028.69 149H1033.94L1039.96 167.752ZM1056.71 150.92C1057.94 150.152 1059.44 149.555 1061.19 149.128C1062.98 148.701 1064.86 148.488 1066.82 148.488C1068.61 148.488 1070.04 148.765 1071.11 149.32C1072.22 149.832 1073.07 150.557 1073.67 151.496C1074.31 152.392 1074.71 153.437 1074.88 154.632C1075.1 155.784 1075.2 157 1075.2 158.28C1075.2 160.84 1075.14 163.336 1075.01 165.768C1074.92 168.2 1074.88 170.504 1074.88 172.68C1074.88 174.301 1074.92 175.816 1075.01 177.224C1075.14 178.589 1075.35 179.891 1075.65 181.128H1072.13L1071.04 177.352H1070.79C1070.15 178.461 1069.21 179.421 1067.97 180.232C1066.73 181.043 1065.07 181.448 1062.98 181.448C1060.67 181.448 1058.78 180.659 1057.28 179.08C1055.83 177.459 1055.11 175.24 1055.11 172.424C1055.11 170.589 1055.4 169.053 1056 167.816C1056.64 166.579 1057.52 165.576 1058.63 164.808C1059.78 164.04 1061.12 163.507 1062.66 163.208C1064.24 162.867 1065.99 162.696 1067.91 162.696C1068.33 162.696 1068.76 162.696 1069.19 162.696C1069.61 162.696 1070.06 162.717 1070.53 162.76C1070.66 161.437 1070.72 160.264 1070.72 159.24C1070.72 156.808 1070.36 155.101 1069.63 154.12C1068.91 153.139 1067.59 152.648 1065.67 152.648C1064.47 152.648 1063.17 152.84 1061.76 153.224C1060.35 153.565 1059.18 154.013 1058.24 154.568L1056.71 150.92ZM1070.59 166.408C1070.17 166.365 1069.74 166.344 1069.31 166.344C1068.89 166.301 1068.46 166.28 1068.03 166.28C1067.01 166.28 1066.01 166.365 1065.03 166.536C1064.04 166.707 1063.17 167.005 1062.4 167.432C1061.63 167.859 1061.02 168.435 1060.55 169.16C1060.12 169.885 1059.91 170.803 1059.91 171.912C1059.91 173.619 1060.31 174.941 1061.12 175.88C1061.98 176.819 1063.06 177.288 1064.39 177.288C1066.18 177.288 1067.56 176.861 1068.55 176.008C1069.53 175.155 1070.21 174.216 1070.59 173.192V166.408ZM1100.32 179.4C1099.46 180.04 1098.52 180.552 1097.5 180.936C1096.48 181.277 1095.41 181.512 1094.3 181.64L1093.4 183.752C1096.18 184.392 1097.56 185.992 1097.56 188.552C1097.56 190.216 1096.94 191.581 1095.71 192.648C1094.51 193.757 1092.89 194.312 1090.84 194.312C1089.99 194.312 1089.2 194.227 1088.48 194.056L1088.92 191.56C1089.9 191.645 1090.67 191.624 1091.23 191.496C1091.82 191.368 1092.27 191.176 1092.57 190.92C1092.87 190.664 1093.06 190.365 1093.15 190.024C1093.23 189.725 1093.28 189.427 1093.28 189.128C1093.28 187.933 1091.8 187.144 1088.86 186.76L1091.1 181.704C1089.31 181.533 1087.77 181.021 1086.49 180.168C1085.25 179.272 1084.25 178.12 1083.48 176.712C1082.72 175.261 1082.14 173.555 1081.76 171.592C1081.41 169.587 1081.24 167.389 1081.24 165C1081.24 159.539 1082.2 155.379 1084.12 152.52C1086.09 149.661 1088.88 148.232 1092.51 148.232C1094.17 148.232 1095.6 148.381 1096.8 148.68C1097.99 148.979 1099.01 149.363 1099.87 149.832L1098.59 153.8C1096.97 152.861 1095.11 152.392 1093.02 152.392C1090.72 152.392 1088.97 153.416 1087.77 155.464C1086.62 157.469 1086.04 160.648 1086.04 165C1086.04 166.749 1086.17 168.392 1086.43 169.928C1086.68 171.421 1087.11 172.744 1087.71 173.896C1088.3 175.005 1089.07 175.88 1090.01 176.52C1090.95 177.16 1092.12 177.48 1093.53 177.48C1094.64 177.48 1095.66 177.309 1096.6 176.968C1097.58 176.584 1098.37 176.136 1098.97 175.624L1100.32 179.4ZM1102.99 165C1102.99 159.24 1103.97 155.016 1105.94 152.328C1107.94 149.597 1110.78 148.232 1114.45 148.232C1118.37 148.232 1121.25 149.619 1123.09 152.392C1124.97 155.165 1125.91 159.368 1125.91 165C1125.91 170.803 1124.9 175.048 1122.9 177.736C1120.89 180.424 1118.08 181.768 1114.45 181.768C1110.52 181.768 1107.62 180.381 1105.75 177.608C1103.91 174.835 1102.99 170.632 1102.99 165ZM1107.79 165C1107.79 166.877 1107.9 168.584 1108.11 170.12C1108.37 171.656 1108.75 172.979 1109.27 174.088C1109.82 175.197 1110.52 176.072 1111.38 176.712C1112.23 177.309 1113.25 177.608 1114.45 177.608C1116.67 177.608 1118.33 176.627 1119.44 174.664C1120.55 172.659 1121.11 169.437 1121.11 165C1121.11 163.165 1120.98 161.48 1120.72 159.944C1120.51 158.365 1120.12 157.021 1119.57 155.912C1119.06 154.803 1118.37 153.949 1117.52 153.352C1116.67 152.712 1115.64 152.392 1114.45 152.392C1112.27 152.392 1110.61 153.395 1109.46 155.4C1108.35 157.405 1107.79 160.605 1107.79 165ZM1106.77 139.208C1107.92 137.757 1108.95 136.776 1109.84 136.264C1110.74 135.709 1111.55 135.432 1112.27 135.432C1112.87 135.432 1113.43 135.56 1113.94 135.816C1114.45 136.072 1114.94 136.349 1115.41 136.648C1115.92 136.904 1116.39 137.16 1116.82 137.416C1117.29 137.672 1117.78 137.8 1118.29 137.8C1118.67 137.8 1119.06 137.715 1119.44 137.544C1119.87 137.331 1120.32 136.968 1120.79 136.456L1122.26 138.888C1121.23 140.125 1120.32 140.979 1119.51 141.448C1118.74 141.917 1118.01 142.152 1117.33 142.152C1116.73 142.152 1116.18 142.045 1115.67 141.832C1115.15 141.576 1114.64 141.299 1114.13 141C1113.66 140.701 1113.19 140.445 1112.72 140.232C1112.25 139.976 1111.76 139.848 1111.25 139.848C1110.78 139.848 1110.31 139.976 1109.84 140.232C1109.37 140.445 1108.86 140.851 1108.31 141.448L1106.77 139.208ZM1151.16 178.824C1150.14 179.763 1148.84 180.488 1147.26 181C1145.68 181.512 1144.02 181.768 1142.27 181.768C1140.26 181.768 1138.51 181.384 1137.02 180.616C1135.57 179.805 1134.35 178.675 1133.37 177.224C1132.43 175.731 1131.73 173.96 1131.26 171.912C1130.83 169.864 1130.62 167.56 1130.62 165C1130.62 159.539 1131.62 155.379 1133.63 152.52C1135.63 149.661 1138.47 148.232 1142.14 148.232C1143.33 148.232 1144.51 148.381 1145.66 148.68C1146.85 148.979 1147.92 149.576 1148.86 150.472C1149.8 151.368 1150.54 152.627 1151.1 154.248C1151.7 155.869 1151.99 157.981 1151.99 160.584C1151.99 161.309 1151.95 162.099 1151.87 162.952C1151.82 163.763 1151.76 164.616 1151.67 165.512H1135.42C1135.42 167.347 1135.57 169.011 1135.87 170.504C1136.16 171.997 1136.63 173.277 1137.27 174.344C1137.91 175.368 1138.72 176.179 1139.71 176.776C1140.73 177.331 1141.99 177.608 1143.48 177.608C1144.63 177.608 1145.76 177.395 1146.87 176.968C1148.03 176.541 1148.9 176.029 1149.5 175.432L1151.16 178.824ZM1147.58 161.672C1147.66 158.472 1147.22 156.125 1146.23 154.632C1145.25 153.139 1143.91 152.392 1142.2 152.392C1140.24 152.392 1138.68 153.139 1137.53 154.632C1136.38 156.125 1135.7 158.472 1135.48 161.672H1147.58ZM1157.95 175.752C1158.8 176.264 1159.81 176.712 1160.96 177.096C1162.15 177.437 1163.37 177.608 1164.61 177.608C1166.02 177.608 1167.21 177.267 1168.19 176.584C1169.17 175.859 1169.66 174.707 1169.66 173.128C1169.66 171.805 1169.36 170.717 1168.77 169.864C1168.17 169.011 1167.4 168.243 1166.46 167.56C1165.57 166.877 1164.59 166.259 1163.52 165.704C1162.45 165.107 1161.45 164.403 1160.51 163.592C1159.62 162.781 1158.87 161.821 1158.27 160.712C1157.67 159.603 1157.38 158.195 1157.38 156.488C1157.38 153.757 1158.1 151.709 1159.55 150.344C1161.04 148.936 1163.14 148.232 1165.82 148.232C1167.57 148.232 1169.09 148.403 1170.37 148.744C1171.65 149.043 1172.76 149.469 1173.7 150.024L1172.48 153.864C1171.67 153.437 1170.73 153.096 1169.66 152.84C1168.6 152.541 1167.51 152.392 1166.4 152.392C1164.86 152.392 1163.73 152.712 1163.01 153.352C1162.32 153.992 1161.98 154.995 1161.98 156.36C1161.98 157.427 1162.28 158.344 1162.88 159.112C1163.48 159.837 1164.22 160.52 1165.12 161.16C1166.06 161.757 1167.06 162.376 1168.13 163.016C1169.19 163.656 1170.18 164.424 1171.07 165.32C1172.01 166.173 1172.78 167.219 1173.38 168.456C1173.97 169.651 1174.27 171.165 1174.27 173C1174.27 174.195 1174.08 175.325 1173.7 176.392C1173.31 177.459 1172.71 178.397 1171.9 179.208C1171.14 179.976 1170.15 180.595 1168.96 181.064C1167.81 181.533 1166.44 181.768 1164.86 181.768C1162.99 181.768 1161.36 181.576 1160 181.192C1158.63 180.851 1157.48 180.381 1156.54 179.784L1157.95 175.752ZM1193.65 149H1196.92L1197.62 152.456H1197.88C1199.45 149.64 1201.93 148.232 1205.3 148.232C1208.67 148.232 1211.19 149.491 1212.85 152.008C1214.56 154.525 1215.41 158.643 1215.41 164.36C1215.41 167.048 1215.13 169.48 1214.58 171.656C1214.02 173.789 1213.24 175.624 1212.21 177.16C1211.19 178.653 1209.93 179.805 1208.44 180.616C1206.98 181.384 1205.36 181.768 1203.57 181.768C1202.33 181.768 1201.35 181.683 1200.63 181.512C1199.9 181.384 1199.11 181.085 1198.26 180.616V193.8H1193.65V149ZM1198.26 175.944C1198.86 176.456 1199.52 176.861 1200.24 177.16C1201.01 177.459 1202.01 177.608 1203.25 177.608C1205.51 177.608 1207.3 176.456 1208.63 174.152C1209.95 171.848 1210.61 168.563 1210.61 164.296C1210.61 162.504 1210.48 160.883 1210.23 159.432C1210.01 157.981 1209.65 156.744 1209.14 155.72C1208.63 154.653 1207.97 153.843 1207.16 153.288C1206.39 152.691 1205.43 152.392 1204.28 152.392C1201.16 152.392 1199.16 154.291 1198.26 158.088V175.944ZM1221.14 150.92C1222.38 150.152 1223.87 149.555 1225.62 149.128C1227.42 148.701 1229.29 148.488 1231.26 148.488C1233.05 148.488 1234.48 148.765 1235.54 149.32C1236.65 149.832 1237.51 150.557 1238.1 151.496C1238.74 152.392 1239.15 153.437 1239.32 154.632C1239.53 155.784 1239.64 157 1239.64 158.28C1239.64 160.84 1239.58 163.336 1239.45 165.768C1239.36 168.2 1239.32 170.504 1239.32 172.68C1239.32 174.301 1239.36 175.816 1239.45 177.224C1239.58 178.589 1239.79 179.891 1240.09 181.128H1236.57L1235.48 177.352H1235.22C1234.58 178.461 1233.64 179.421 1232.41 180.232C1231.17 181.043 1229.51 181.448 1227.42 181.448C1225.11 181.448 1223.21 180.659 1221.72 179.08C1220.27 177.459 1219.54 175.24 1219.54 172.424C1219.54 170.589 1219.84 169.053 1220.44 167.816C1221.08 166.579 1221.95 165.576 1223.06 164.808C1224.22 164.04 1225.56 163.507 1227.1 163.208C1228.67 162.867 1230.42 162.696 1232.34 162.696C1232.77 162.696 1233.2 162.696 1233.62 162.696C1234.05 162.696 1234.5 162.717 1234.97 162.76C1235.1 161.437 1235.16 160.264 1235.16 159.24C1235.16 156.808 1234.8 155.101 1234.07 154.12C1233.35 153.139 1232.02 152.648 1230.1 152.648C1228.91 152.648 1227.61 152.84 1226.2 153.224C1224.79 153.565 1223.62 154.013 1222.68 154.568L1221.14 150.92ZM1235.03 166.408C1234.6 166.365 1234.18 166.344 1233.75 166.344C1233.32 166.301 1232.9 166.28 1232.47 166.28C1231.45 166.28 1230.44 166.365 1229.46 166.536C1228.48 166.707 1227.61 167.005 1226.84 167.432C1226.07 167.859 1225.45 168.435 1224.98 169.16C1224.56 169.885 1224.34 170.803 1224.34 171.912C1224.34 173.619 1224.75 174.941 1225.56 175.88C1226.41 176.819 1227.5 177.288 1228.82 177.288C1230.62 177.288 1232 176.861 1232.98 176.008C1233.96 175.155 1234.65 174.216 1235.03 173.192V166.408ZM1247.09 149H1250.35L1251.18 152.392H1251.38C1251.97 151.155 1252.74 150.195 1253.68 149.512C1254.66 148.787 1255.84 148.424 1257.2 148.424C1258.18 148.424 1259.29 148.616 1260.53 149L1259.63 153.672C1258.52 153.288 1257.54 153.096 1256.69 153.096C1255.32 153.096 1254.21 153.501 1253.36 154.312C1252.51 155.08 1251.95 156.125 1251.7 157.448V181H1247.09V149ZM1264.33 150.92C1265.57 150.152 1267.06 149.555 1268.81 149.128C1270.6 148.701 1272.48 148.488 1274.44 148.488C1276.24 148.488 1277.66 148.765 1278.73 149.32C1279.84 149.832 1280.69 150.557 1281.29 151.496C1281.93 152.392 1282.34 153.437 1282.51 154.632C1282.72 155.784 1282.83 157 1282.83 158.28C1282.83 160.84 1282.76 163.336 1282.64 165.768C1282.55 168.2 1282.51 170.504 1282.51 172.68C1282.51 174.301 1282.55 175.816 1282.64 177.224C1282.76 178.589 1282.98 179.891 1283.28 181.128H1279.76L1278.67 177.352H1278.41C1277.77 178.461 1276.83 179.421 1275.6 180.232C1274.36 181.043 1272.69 181.448 1270.6 181.448C1268.3 181.448 1266.4 180.659 1264.91 179.08C1263.46 177.459 1262.73 175.24 1262.73 172.424C1262.73 170.589 1263.03 169.053 1263.63 167.816C1264.27 166.579 1265.14 165.576 1266.25 164.808C1267.4 164.04 1268.75 163.507 1270.28 163.208C1271.86 162.867 1273.61 162.696 1275.53 162.696C1275.96 162.696 1276.38 162.696 1276.81 162.696C1277.24 162.696 1277.69 162.717 1278.16 162.76C1278.28 161.437 1278.35 160.264 1278.35 159.24C1278.35 156.808 1277.98 155.101 1277.26 154.12C1276.53 153.139 1275.21 152.648 1273.29 152.648C1272.1 152.648 1270.8 152.84 1269.39 153.224C1267.98 153.565 1266.81 154.013 1265.87 154.568L1264.33 150.92ZM1278.22 166.408C1277.79 166.365 1277.37 166.344 1276.94 166.344C1276.51 166.301 1276.09 166.28 1275.66 166.28C1274.64 166.28 1273.63 166.365 1272.65 166.536C1271.67 166.707 1270.8 167.005 1270.03 167.432C1269.26 167.859 1268.64 168.435 1268.17 169.16C1267.74 169.885 1267.53 170.803 1267.53 171.912C1267.53 173.619 1267.94 174.941 1268.75 175.88C1269.6 176.819 1270.69 177.288 1272.01 177.288C1273.8 177.288 1275.19 176.861 1276.17 176.008C1277.15 175.155 1277.84 174.216 1278.22 173.192V166.408ZM1302.43 165C1302.43 159.24 1303.41 155.016 1305.37 152.328C1307.38 149.597 1310.22 148.232 1313.89 148.232C1317.81 148.232 1320.69 149.619 1322.53 152.392C1324.4 155.165 1325.34 159.368 1325.34 165C1325.34 170.803 1324.34 175.048 1322.33 177.736C1320.33 180.424 1317.51 181.768 1313.89 181.768C1309.96 181.768 1307.06 180.381 1305.18 177.608C1303.35 174.835 1302.43 170.632 1302.43 165ZM1307.23 165C1307.23 166.877 1307.34 168.584 1307.55 170.12C1307.81 171.656 1308.19 172.979 1308.7 174.088C1309.26 175.197 1309.96 176.072 1310.81 176.712C1311.67 177.309 1312.69 177.608 1313.89 177.608C1316.11 177.608 1317.77 176.627 1318.88 174.664C1319.99 172.659 1320.54 169.437 1320.54 165C1320.54 163.165 1320.41 161.48 1320.16 159.944C1319.95 158.365 1319.56 157.021 1319.01 155.912C1318.49 154.803 1317.81 153.949 1316.96 153.352C1316.11 152.712 1315.08 152.392 1313.89 152.392C1311.71 152.392 1310.05 153.395 1308.89 155.4C1307.79 157.405 1307.23 160.605 1307.23 165ZM1345.35 136.648C1346.71 136.264 1348.16 136.008 1349.7 135.88C1351.23 135.752 1352.75 135.688 1354.24 135.688C1355.95 135.688 1357.63 135.88 1359.3 136.264C1360.96 136.648 1362.46 137.352 1363.78 138.376C1365.14 139.4 1366.23 140.808 1367.04 142.6C1367.9 144.392 1368.32 146.675 1368.32 149.448C1368.32 152.136 1367.92 154.419 1367.11 156.296C1366.34 158.173 1365.29 159.709 1363.97 160.904C1362.69 162.056 1361.2 162.909 1359.49 163.464C1357.83 163.976 1356.1 164.232 1354.31 164.232C1354.14 164.232 1353.86 164.232 1353.47 164.232C1353.09 164.232 1352.68 164.232 1352.26 164.232C1351.83 164.189 1351.4 164.147 1350.98 164.104C1350.59 164.061 1350.32 164.019 1350.15 163.976V181H1345.35V136.648ZM1354.5 140.104C1353.64 140.104 1352.81 140.147 1352 140.232C1351.23 140.275 1350.62 140.36 1350.15 140.488V159.56C1350.32 159.645 1350.57 159.709 1350.91 159.752C1351.3 159.752 1351.68 159.773 1352.07 159.816C1352.45 159.816 1352.81 159.816 1353.15 159.816C1353.54 159.816 1353.82 159.816 1353.99 159.816C1355.18 159.816 1356.33 159.667 1357.44 159.368C1358.55 159.069 1359.53 158.536 1360.39 157.768C1361.24 156.957 1361.92 155.891 1362.43 154.568C1362.99 153.203 1363.27 151.496 1363.27 149.448C1363.27 147.656 1363.01 146.163 1362.5 144.968C1362.03 143.773 1361.39 142.813 1360.58 142.088C1359.81 141.363 1358.89 140.851 1357.83 140.552C1356.76 140.253 1355.65 140.104 1354.5 140.104ZM1378.83 173.384C1378.83 174.877 1379.02 175.944 1379.41 176.584C1379.83 177.224 1380.41 177.544 1381.13 177.544C1382.03 177.544 1383.07 177.309 1384.27 176.84L1384.72 180.552C1384.16 180.893 1383.37 181.171 1382.35 181.384C1381.37 181.597 1380.47 181.704 1379.66 181.704C1378.04 181.704 1376.72 181.213 1375.69 180.232C1374.71 179.208 1374.22 177.437 1374.22 174.92V136.2H1378.83V173.384ZM1388.52 150.92C1389.76 150.152 1391.25 149.555 1393 149.128C1394.79 148.701 1396.67 148.488 1398.63 148.488C1400.42 148.488 1401.85 148.765 1402.92 149.32C1404.03 149.832 1404.88 150.557 1405.48 151.496C1406.12 152.392 1406.52 153.437 1406.69 154.632C1406.91 155.784 1407.01 157 1407.01 158.28C1407.01 160.84 1406.95 163.336 1406.82 165.768C1406.74 168.2 1406.69 170.504 1406.69 172.68C1406.69 174.301 1406.74 175.816 1406.82 177.224C1406.95 178.589 1407.16 179.891 1407.46 181.128H1403.94L1402.85 177.352H1402.6C1401.96 178.461 1401.02 179.421 1399.78 180.232C1398.55 181.043 1396.88 181.448 1394.79 181.448C1392.49 181.448 1390.59 180.659 1389.09 179.08C1387.64 177.459 1386.92 175.24 1386.92 172.424C1386.92 170.589 1387.22 169.053 1387.81 167.816C1388.45 166.579 1389.33 165.576 1390.44 164.808C1391.59 164.04 1392.93 163.507 1394.47 163.208C1396.05 162.867 1397.8 162.696 1399.72 162.696C1400.15 162.696 1400.57 162.696 1401 162.696C1401.43 162.696 1401.87 162.717 1402.34 162.76C1402.47 161.437 1402.53 160.264 1402.53 159.24C1402.53 156.808 1402.17 155.101 1401.45 154.12C1400.72 153.139 1399.4 152.648 1397.48 152.648C1396.28 152.648 1394.98 152.84 1393.57 153.224C1392.17 153.565 1390.99 154.013 1390.05 154.568L1388.52 150.92ZM1402.41 166.408C1401.98 166.365 1401.55 166.344 1401.13 166.344C1400.7 166.301 1400.27 166.28 1399.85 166.28C1398.82 166.28 1397.82 166.365 1396.84 166.536C1395.86 166.707 1394.98 167.005 1394.21 167.432C1393.45 167.859 1392.83 168.435 1392.36 169.16C1391.93 169.885 1391.72 170.803 1391.72 171.912C1391.72 173.619 1392.12 174.941 1392.93 175.88C1393.79 176.819 1394.88 177.288 1396.2 177.288C1397.99 177.288 1399.38 176.861 1400.36 176.008C1401.34 175.155 1402.02 174.216 1402.41 173.192V166.408ZM1430.85 181V161.48C1430.85 158.28 1430.46 155.976 1429.7 154.568C1428.97 153.117 1427.65 152.392 1425.73 152.392C1424.02 152.392 1422.61 152.904 1421.5 153.928C1420.39 154.952 1419.58 156.211 1419.07 157.704V181H1414.46V149H1417.79L1418.62 152.392H1418.82C1419.63 151.24 1420.71 150.259 1422.08 149.448C1423.49 148.637 1425.15 148.232 1427.07 148.232C1428.44 148.232 1429.63 148.424 1430.66 148.808C1431.72 149.192 1432.6 149.853 1433.28 150.792C1434 151.688 1434.54 152.904 1434.88 154.44C1435.26 155.976 1435.46 157.917 1435.46 160.264V181H1430.85ZM1461.72 178.824C1460.7 179.763 1459.4 180.488 1457.82 181C1456.24 181.512 1454.58 181.768 1452.83 181.768C1450.82 181.768 1449.07 181.384 1447.58 180.616C1446.13 179.805 1444.91 178.675 1443.93 177.224C1442.99 175.731 1442.29 173.96 1441.82 171.912C1441.39 169.864 1441.18 167.56 1441.18 165C1441.18 159.539 1442.18 155.379 1444.19 152.52C1446.19 149.661 1449.03 148.232 1452.7 148.232C1453.9 148.232 1455.07 148.381 1456.22 148.68C1457.42 148.979 1458.48 149.576 1459.42 150.472C1460.36 151.368 1461.11 152.627 1461.66 154.248C1462.26 155.869 1462.56 157.981 1462.56 160.584C1462.56 161.309 1462.51 162.099 1462.43 162.952C1462.39 163.763 1462.32 164.616 1462.24 165.512H1445.98C1445.98 167.347 1446.13 169.011 1446.43 170.504C1446.73 171.997 1447.2 173.277 1447.84 174.344C1448.48 175.368 1449.29 176.179 1450.27 176.776C1451.29 177.331 1452.55 177.608 1454.04 177.608C1455.2 177.608 1456.33 177.395 1457.44 176.968C1458.59 176.541 1459.46 176.029 1460.06 175.432L1461.72 178.824ZM1458.14 161.672C1458.23 158.472 1457.78 156.125 1456.8 154.632C1455.82 153.139 1454.47 152.392 1452.76 152.392C1450.8 152.392 1449.24 153.139 1448.09 154.632C1446.94 156.125 1446.26 158.472 1446.04 161.672H1458.14ZM1465.83 149H1469.73V142.664L1474.34 141.192V149H1481.25V153.16H1474.34V172.232C1474.34 174.109 1474.55 175.475 1474.98 176.328C1475.45 177.139 1476.19 177.544 1477.22 177.544C1478.07 177.544 1478.8 177.459 1479.39 177.288C1480.03 177.075 1480.72 176.819 1481.44 176.52L1482.34 180.168C1481.4 180.637 1480.35 181 1479.2 181.256C1478.09 181.555 1476.92 181.704 1475.68 181.704C1473.55 181.704 1472.01 181.021 1471.07 179.656C1470.18 178.248 1469.73 175.987 1469.73 172.872V153.16H1465.83V149ZM1486.33 150.92C1487.57 150.152 1489.06 149.555 1490.81 149.128C1492.6 148.701 1494.48 148.488 1496.44 148.488C1498.24 148.488 1499.66 148.765 1500.73 149.32C1501.84 149.832 1502.69 150.557 1503.29 151.496C1503.93 152.392 1504.34 153.437 1504.51 154.632C1504.72 155.784 1504.83 157 1504.83 158.28C1504.83 160.84 1504.76 163.336 1504.64 165.768C1504.55 168.2 1504.51 170.504 1504.51 172.68C1504.51 174.301 1504.55 175.816 1504.64 177.224C1504.76 178.589 1504.98 179.891 1505.28 181.128H1501.76L1500.67 177.352H1500.41C1499.77 178.461 1498.83 179.421 1497.6 180.232C1496.36 181.043 1494.69 181.448 1492.6 181.448C1490.3 181.448 1488.4 180.659 1486.91 179.08C1485.46 177.459 1484.73 175.24 1484.73 172.424C1484.73 170.589 1485.03 169.053 1485.63 167.816C1486.27 166.579 1487.14 165.576 1488.25 164.808C1489.4 164.04 1490.75 163.507 1492.28 163.208C1493.86 162.867 1495.61 162.696 1497.53 162.696C1497.96 162.696 1498.38 162.696 1498.81 162.696C1499.24 162.696 1499.69 162.717 1500.16 162.76C1500.28 161.437 1500.35 160.264 1500.35 159.24C1500.35 156.808 1499.98 155.101 1499.26 154.12C1498.53 153.139 1497.21 152.648 1495.29 152.648C1494.1 152.648 1492.8 152.84 1491.39 153.224C1489.98 153.565 1488.81 154.013 1487.87 154.568L1486.33 150.92ZM1500.22 166.408C1499.79 166.365 1499.37 166.344 1498.94 166.344C1498.51 166.301 1498.09 166.28 1497.66 166.28C1496.64 166.28 1495.63 166.365 1494.65 166.536C1493.67 166.707 1492.8 167.005 1492.03 167.432C1491.26 167.859 1490.64 168.435 1490.17 169.16C1489.74 169.885 1489.53 170.803 1489.53 171.912C1489.53 173.619 1489.94 174.941 1490.75 175.88C1491.6 176.819 1492.69 177.288 1494.01 177.288C1495.8 177.288 1497.19 176.861 1498.17 176.008C1499.15 175.155 1499.84 174.216 1500.22 173.192V166.408Z" fill="black"/>
</g>
<defs>
<filter id="filter0_d_373_6" x="0.319946" y="27.728" width="1508.96" height="174.84" filterUnits="userSpaceOnUse" color-interpolation-filters="sRGB">
<feFlood flood-opacity="0" result="BackgroundImageFix"/>
<feColorMatrix in="SourceAlpha" type="matrix" values="0 0 0 0 0 0 0 0 0 0 0 0 0 0 0 0 0 0 127 0" result="hardAlpha"/>
<feOffset dy="4"/>
<feGaussianBlur stdDeviation="2"/>
<feComposite in2="hardAlpha" operator="out"/>
<feColorMatrix type="matrix" values="0 0 0 0 0 0 0 0 0 0 0 0 0 0 0 0 0 0 0.25 0"/>
<feBlend mode="normal" in2="BackgroundImageFix" result="effect1_dropShadow_373_6"/>
<feBlend mode="normal" in="SourceGraphic" in2="effect1_dropShadow_373_6" result="shape"/>
</filter>
</defs>
</svg>
