<svg width="1017" height="329" viewBox="0 0 1017 329" fill="none" xmlns="http://www.w3.org/2000/svg">
<path d="M113.25 170.25V147.75H105.75V144H128.25V147.75H120.75V170.25H113.25ZM135.75 170.25V166.5H132V155.25H135.75V151.5H154.5V155.25H158.25V162.75H139.5V166.5H154.5V170.25H135.75ZM139.5 159H150.75V155.25H139.5V159ZM165.75 170.25V166.5H162V155.25H165.75V151.5H188.25V155.25H169.5V166.5H188.25V170.25H165.75ZM192 170.25V151.5H214.5V155.25H218.25V170.25H210.75V155.25H199.5V170.25H192ZM225.75 170.25V166.5H222V155.25H225.75V151.5H244.5V155.25H248.25V166.5H244.5V170.25H225.75ZM229.5 166.5H240.75V155.25H229.5V166.5ZM255.75 170.25V166.5H263.25V147.75H259.5V144H270.75V166.5H278.25V170.25H255.75ZM285.75 170.25V166.5H282V155.25H285.75V151.5H304.5V155.25H308.25V166.5H304.5V170.25H285.75ZM289.5 166.5H300.75V155.25H289.5V166.5ZM315.75 174V170.25H330.75V166.5H315.75V162.75H312V155.25H315.75V151.5H338.25V170.25H334.5V174H315.75ZM319.5 162.75H330.75V155.25H319.5V162.75ZM353.25 147.75V144H360.75V147.75H353.25ZM345.75 170.25V166.5H353.25V155.25H349.5V151.5H360.75V166.5H368.25V170.25H345.75ZM375.75 170.25V166.5H372V162.75H375.75V159H390.75V155.25H375.75V151.5H394.5V155.25H398.25V170.25H375.75ZM379.5 166.5H390.75V162.75H379.5V166.5ZM402 170.25V166.5H420.75V162.75H405.75V159H402V155.25H405.75V151.5H424.5V155.25H409.5V159H424.5V162.75H428.25V166.5H424.5V170.25H402ZM465.75 170.25V144H473.25V166.5H488.25V170.25H465.75ZM503.25 147.75V144H510.75V147.75H503.25ZM495.75 170.25V166.5H503.25V155.25H499.5V151.5H510.75V166.5H518.25V170.25H495.75ZM533.25 170.25V166.5H529.5V162.75H525.75V151.5H533.25V162.75H540.75V151.5H548.25V162.75H544.5V166.5H540.75V170.25H533.25ZM563.25 155.25H567V159H563.25V170.25H555.75V151.5H563.25V155.25ZM578.25 151.5V155.25H567V151.5H578.25ZM585.75 170.25V166.5H582V155.25H585.75V151.5H604.5V155.25H608.25V162.75H589.5V166.5H604.5V170.25H585.75ZM589.5 159H600.75V155.25H589.5V159ZM612 170.25V166.5H630.75V162.75H615.75V159H612V155.25H615.75V151.5H634.5V155.25H619.5V159H634.5V162.75H638.25V166.5H634.5V170.25H612ZM672 170.25V151.5H694.5V155.25H698.25V170.25H690.75V155.25H679.5V170.25H672ZM705.75 170.25V166.5H702V162.75H705.75V159H720.75V155.25H705.75V151.5H724.5V155.25H728.25V170.25H705.75ZM709.5 166.5H720.75V162.75H709.5V166.5ZM762 170.25V144H788.25V147.75H769.5V155.25H784.5V159H769.5V166.5H788.25V170.25H762ZM795.75 170.25V166.5H792V155.25H795.75V151.5H810.75V144H818.25V170.25H795.75ZM799.5 166.5H810.75V155.25H799.5V166.5ZM825.75 170.25V166.5H822V151.5H829.5V166.5H840.75V151.5H848.25V170.25H825.75ZM855.75 170.25V166.5H852V155.25H855.75V151.5H878.25V155.25H859.5V166.5H878.25V170.25H855.75ZM885.75 170.25V166.5H882V162.75H885.75V159H900.75V155.25H885.75V151.5H904.5V155.25H908.25V170.25H885.75ZM889.5 166.5H900.75V162.75H889.5V166.5ZM938.25 151.5V155.25H919.5V162.75H938.25V166.5H930.75V170.25H927V166.5H915.75V162.75H912V155.25H915.75V151.5H938.25ZM919.5 170.25H927V174H919.5V170.25ZM945.75 170.25V166.5H942V162.75H945.75V159H960.75V155.25H945.75V147.75H949.5V144H957V147.75H960.75V144H964.5V147.75H960.75V151.5H964.5V155.25H968.25V170.25H945.75ZM949.5 151.5H953.25V147.75H949.5V151.5ZM949.5 166.5H960.75V162.75H949.5V166.5ZM975.75 170.25V166.5H972V155.25H975.75V151.5H994.5V155.25H998.25V166.5H994.5V170.25H975.75ZM979.5 166.5H990.75V155.25H979.5V166.5Z" fill="#121914"/>
<path d="M351 126V18H315V0H423V18H387V126H351ZM441 126V0H567V18H477V54H549V72H477V108H567V126H441ZM621 126V108H603V90H585V36H603V18H621V0H693V18H711V36H675V18H639V36H621V90H639V108H675V90H711V108H693V126H621ZM747 126V0H783V108H855V126H747ZM873 126V0H999V18H909V54H981V72H909V108H999V126H873Z" fill="#121914"/>
</svg>
